G04 Layer_Physical_Order=1*
G04 Layer_Color=255*
%FSLAX44Y44*%
%MOMM*%
G71*
G01*
G75*
%ADD10R,0.8000X0.6000*%
%ADD11C,0.2000*%
G04:AMPARAMS|DCode=12|XSize=1.6002mm|YSize=1.6002mm|CornerRadius=0mm|HoleSize=0mm|Usage=FLASHONLY|Rotation=270.000|XOffset=0mm|YOffset=0mm|HoleType=Round|Shape=Octagon|*
%AMOCTAGOND12*
4,1,8,-0.4001,-0.8001,0.4001,-0.8001,0.8001,-0.4001,0.8001,0.4001,0.4001,0.8001,-0.4001,0.8001,-0.8001,0.4001,-0.8001,-0.4001,-0.4001,-0.8001,0.0*
%
%ADD12OCTAGOND12*%

%ADD13C,1.0000*%
G04:AMPARAMS|DCode=14|XSize=1.4mm|YSize=1.4mm|CornerRadius=0mm|HoleSize=0mm|Usage=FLASHONLY|Rotation=180.000|XOffset=0mm|YOffset=0mm|HoleType=Round|Shape=Octagon|*
%AMOCTAGOND14*
4,1,8,-0.7000,0.3500,-0.7000,-0.3500,-0.3500,-0.7000,0.3500,-0.7000,0.7000,-0.3500,0.7000,0.3500,0.3500,0.7000,-0.3500,0.7000,-0.7000,0.3500,0.0*
%
%ADD14OCTAGOND14*%

%ADD15C,1.4000*%
%ADD16C,0.5000*%
D10*
X67310Y70612D02*
D03*
Y84074D02*
D03*
Y46482D02*
D03*
Y59944D02*
D03*
X41910Y70612D02*
D03*
Y84074D02*
D03*
X54610Y70612D02*
D03*
Y84074D02*
D03*
X80010Y70612D02*
D03*
Y84074D02*
D03*
X41910Y46482D02*
D03*
Y59944D02*
D03*
X54610Y46482D02*
D03*
Y59944D02*
D03*
X80010Y46482D02*
D03*
Y59944D02*
D03*
D11*
X39876Y271098D02*
X62500Y293722D01*
X75174Y300701D02*
X81280Y294595D01*
X68634Y300701D02*
X75174D01*
X62500Y294567D02*
X68634Y300701D01*
X62500Y293722D02*
Y294567D01*
X39876Y203200D02*
Y271098D01*
X57791Y316064D02*
X91307D01*
X103378Y303993D01*
X45466Y303739D02*
X57791Y316064D01*
X59944Y327361D02*
X138684D01*
X39876Y307293D02*
X59944Y327361D01*
X138684D02*
X139954Y326091D01*
X95000Y129472D02*
X103886Y120586D01*
X95000Y129472D02*
Y141192D01*
X103886Y91649D02*
Y120586D01*
X138350Y165930D02*
X143849Y160430D01*
X119739Y165930D02*
X138350D01*
X95000Y141192D02*
X119739Y165930D01*
X108966Y114763D02*
X116480Y122277D01*
Y127674D01*
X107654Y136500D02*
X116480Y127674D01*
X100500Y136500D02*
X107654D01*
X113849Y152262D02*
X120544Y145568D01*
Y111461D02*
Y145568D01*
X127079Y143322D02*
X138652Y154895D01*
X127079Y102180D02*
Y143322D01*
X34036Y46437D02*
X34081Y46482D01*
X236474Y200107D02*
X248347Y188234D01*
Y181500D02*
Y188234D01*
X237205Y162007D02*
X253746D01*
X224759Y174453D02*
X237205Y162007D01*
X211074Y174453D02*
X224759D01*
X234913Y188136D02*
X240011Y183037D01*
Y178344D02*
Y183037D01*
X235546Y173879D02*
X240011Y178344D01*
X246482Y169258D02*
X264263D01*
X228850Y188136D02*
X234913D01*
X243324Y166101D02*
X246482Y169258D01*
X218850Y179968D02*
X219641Y180759D01*
X234511D01*
X235546Y169322D02*
Y173879D01*
Y169322D02*
X238768Y166101D01*
X243324D01*
X247512Y180259D02*
Y180665D01*
X248347Y181500D01*
X233426Y200107D02*
X236474D01*
X231394Y202139D02*
X233426Y200107D01*
X225298Y202139D02*
X231394D01*
X215138Y191979D02*
X225298Y202139D01*
X269763Y159990D02*
Y179037D01*
X267970Y158197D02*
X269763Y159990D01*
X253120Y195680D02*
X269763Y179037D01*
X270248Y152697D02*
X273763Y156211D01*
X263056Y152697D02*
X270248D01*
X253746Y162007D02*
X263056Y152697D01*
X273763Y156211D02*
Y189644D01*
X276352Y192233D01*
X253120Y195680D02*
Y202478D01*
X280670Y152673D02*
Y188169D01*
X253120Y202478D02*
X260842Y210200D01*
X266787D01*
X138652Y154895D02*
X147828D01*
X24697Y296581D02*
X27876Y293402D01*
Y238715D02*
Y293402D01*
X24697Y340628D02*
X103632Y419563D01*
X24697Y296581D02*
Y340628D01*
X22000Y287835D02*
Y291500D01*
Y287835D02*
X23876Y285959D01*
X31876Y235590D02*
Y295257D01*
X28697Y298436D02*
X31876Y295257D01*
X28697Y298436D02*
Y332028D01*
X35876Y228411D02*
Y313256D01*
X24697Y235536D02*
X27876Y238715D01*
X24697Y189797D02*
Y235536D01*
X39876Y284228D02*
X41402Y282702D01*
X28697Y332028D02*
X120550Y423881D01*
X39876Y284228D02*
Y307293D01*
X35876Y313256D02*
X97733Y375113D01*
X23876Y243590D02*
Y285959D01*
X157100Y100094D02*
Y127463D01*
X46228Y84074D02*
Y128655D01*
X53848Y84074D02*
Y128225D01*
X77216Y112477D02*
Y151847D01*
Y84074D02*
Y112477D01*
X63246Y80219D02*
Y84074D01*
X225806Y157943D02*
Y160430D01*
X34140Y46482D02*
X41910D01*
X34081D02*
X34140D01*
X243550Y58450D02*
X253746Y48254D01*
Y22053D02*
Y48254D01*
X249428Y17735D02*
X253746Y22053D01*
X156972Y17735D02*
X249428D01*
X154686Y15449D02*
X156972Y17735D01*
X152146Y41611D02*
X156210Y45675D01*
Y93935D01*
X152908Y97237D02*
X156210Y93935D01*
X152908Y97237D02*
Y151321D01*
X153849Y152262D01*
X138850Y179968D02*
X149352Y169466D01*
Y156419D02*
Y169466D01*
X147828Y154895D02*
X149352Y156419D01*
X157100Y127463D02*
X159512D01*
X157100Y100094D02*
X172911Y84283D01*
X178859D01*
X192500Y97924D01*
Y117800D01*
X188850Y179405D02*
Y188136D01*
Y179405D02*
X198120Y170135D01*
X203200D01*
X218440Y154895D01*
X222504D01*
X228092Y149307D01*
Y138893D02*
Y149307D01*
Y138893D02*
X233680Y133305D01*
X218150Y33050D02*
X228346Y43246D01*
Y89363D01*
X207010Y110699D02*
X228346Y89363D01*
X207010Y110699D02*
Y146005D01*
X192585Y160430D02*
X207010Y146005D01*
X183851Y160430D02*
X192585D01*
X306324Y268224D02*
X317500Y279400D01*
X306324Y167849D02*
Y268224D01*
X302260Y163785D02*
X306324Y167849D01*
X257556Y107651D02*
X279146Y129241D01*
X235966Y107651D02*
X257556D01*
X232918Y110699D02*
X235966Y107651D01*
X232918Y110699D02*
Y126193D01*
X225806Y133305D02*
X232918Y126193D01*
X223851Y160430D02*
X225806D01*
Y157943D02*
X246122D01*
X256726Y147339D01*
X275336D01*
X280670Y152673D01*
X247904Y342855D02*
X253492Y348443D01*
Y358603D01*
X243332Y368763D02*
X253492Y358603D01*
X238760Y368763D02*
X243332D01*
X233800Y373723D02*
X238760Y368763D01*
X233800Y373723D02*
Y394200D01*
X243800Y404200D01*
X278130Y17227D02*
Y108370D01*
X266628Y5724D02*
X278130Y17227D01*
X109547Y5724D02*
X266628D01*
X100330Y14941D02*
X109547Y5724D01*
X100330Y14941D02*
Y50501D01*
X45466Y141433D02*
X55626Y151593D01*
Y157758D01*
X88068Y190200D01*
X98618D01*
X217900Y133051D02*
Y143200D01*
Y133051D02*
X228092Y122859D01*
Y109683D02*
Y122859D01*
Y109683D02*
X257810Y79965D01*
Y20021D02*
Y79965D01*
X247514Y9724D02*
X257810Y20021D01*
X150562Y9724D02*
X247514D01*
X149062Y11224D02*
X150562Y9724D01*
X133765Y11224D02*
X149062D01*
X119634Y25355D02*
X133765Y11224D01*
X119634Y25355D02*
Y45929D01*
X99822Y65741D02*
X119634Y45929D01*
X99822Y65741D02*
Y108667D01*
X96520Y111969D02*
X99822Y108667D01*
X92456Y111969D02*
X96520D01*
X82296Y122129D02*
X92456Y111969D01*
X82296Y122129D02*
Y157943D01*
X76708Y163531D02*
X82296Y157943D01*
X288760Y130340D02*
X317500Y101600D01*
X288760Y130340D02*
Y234181D01*
X285242Y237699D02*
X288760Y234181D01*
X292760Y151740D02*
X317500Y127000D01*
X292760Y151740D02*
Y171557D01*
X293218Y172015D01*
Y244894D01*
X290806Y247306D02*
X293218Y244894D01*
X304843Y152400D02*
X317500D01*
X296760Y160483D02*
X304843Y152400D01*
X296760Y160483D02*
Y167011D01*
X298958Y169209D01*
Y247097D01*
X12700Y228600D02*
X20697Y236597D01*
X23876Y243590D01*
X34544Y329393D02*
X119380Y414229D01*
X198120D01*
X208280Y404069D01*
Y399243D02*
Y404069D01*
Y399243D02*
X213360Y394163D01*
X222504D01*
X229092Y387575D01*
Y370326D02*
Y387575D01*
Y370326D02*
X234696Y364723D01*
X247904Y354539D01*
X81280Y294595D02*
X103124D01*
X105156Y296627D01*
X141478D01*
X151130Y286975D01*
X237308D01*
X239082Y285201D01*
X12700Y177800D02*
X24697Y189797D01*
X279400Y294849D02*
Y389845D01*
X264751Y280200D02*
X279400Y294849D01*
X258620Y280200D02*
X264751D01*
X53848Y84074D02*
X54610D01*
X148850Y188136D02*
X159545D01*
X166624Y181057D01*
Y166071D02*
Y181057D01*
Y166071D02*
X174244Y158451D01*
Y150831D02*
Y158451D01*
Y150831D02*
X177292Y147783D01*
Y91141D02*
Y147783D01*
X103886Y91649D02*
X121666Y73869D01*
X108966Y106381D02*
Y114763D01*
Y106381D02*
X132334Y83013D01*
X143060D01*
X151950Y74123D01*
Y51951D02*
Y74123D01*
X148214Y48215D02*
X151950Y51951D01*
X141224Y48215D02*
X148214D01*
X131826Y38817D02*
X141224Y48215D01*
X131826Y28149D02*
Y38817D01*
Y28149D02*
X137160Y22815D01*
X222758D01*
X233426Y33483D01*
Y63995D01*
X243300Y73869D01*
X208850Y176677D02*
Y188136D01*
Y176677D02*
X211074Y174453D01*
X276352Y192233D02*
Y242271D01*
X298958Y264877D01*
Y286258D01*
X317500Y304800D01*
X218400Y404200D02*
X230207Y416007D01*
X249428D01*
X258064Y407371D01*
Y318217D02*
Y407371D01*
X252984Y313137D02*
X258064Y318217D01*
X252984Y234651D02*
Y313137D01*
Y234651D02*
X272288Y215347D01*
Y195700D02*
Y215347D01*
X266787Y190200D02*
X272288Y195700D01*
X258620Y240200D02*
X275590Y257171D01*
Y261321D01*
X292100Y277831D01*
Y375875D01*
X284988Y382987D02*
X292100Y375875D01*
X284988Y382987D02*
Y415499D01*
X276606Y423881D02*
X284988Y415499D01*
X120550Y423881D02*
X276606D01*
X28697Y232411D02*
X31876Y235590D01*
X28697Y117597D02*
Y232411D01*
X12700Y101600D02*
X28697Y117597D01*
X210820Y280879D02*
X233680D01*
X234950Y279609D01*
X244602D01*
Y326599D01*
X242316Y328885D02*
X244602Y326599D01*
X242316Y328885D02*
Y352761D01*
X238506Y356571D02*
X242316Y352761D01*
X215646Y356571D02*
X238506D01*
X207772Y364445D02*
X215646Y356571D01*
X207772Y364445D02*
Y389428D01*
X193000Y404200D02*
X207772Y389428D01*
X199898Y303993D02*
X203962Y299929D01*
X103378Y303993D02*
X199898D01*
X178351Y157349D02*
X192500Y143200D01*
X178351Y157349D02*
Y171870D01*
X173228Y176993D02*
X178351Y171870D01*
X173228Y176993D02*
Y182835D01*
X174498Y184105D01*
Y194011D01*
X168309Y200200D02*
X174498Y194011D01*
X98618Y200200D02*
X168309D01*
X38544Y175977D02*
X39370D01*
X73660Y210267D01*
X76454D01*
X88900Y222713D01*
Y242779D01*
X101346Y255225D01*
X104140D01*
X109220Y260305D01*
X225810D01*
X230914Y255201D01*
X109474Y94830D02*
X130556Y73748D01*
Y73510D02*
Y73748D01*
X77216Y84074D02*
X80010D01*
X163229Y193757D02*
X168850Y188136D01*
X122936Y193757D02*
X163229D01*
X101346Y172167D02*
X122936Y193757D01*
X75692Y172167D02*
X101346D01*
X71120Y167595D02*
X75692Y172167D01*
X71120Y157943D02*
Y167595D01*
Y157943D02*
X77216Y151847D01*
X41910Y84074D02*
X46228D01*
X39458Y135425D02*
X46228Y128655D01*
X39458Y135425D02*
Y153205D01*
X106426Y220173D01*
X165608D01*
X178850Y206931D01*
Y179968D02*
Y206931D01*
X63246Y84074D02*
X67310D01*
X60960Y77933D02*
X63246Y80219D01*
X35306Y77933D02*
X60960D01*
X33020Y80219D02*
X35306Y77933D01*
X33020Y80219D02*
Y225555D01*
X35876Y228411D01*
X97733Y375113D02*
X125730D01*
X140999Y359844D01*
Y352507D02*
Y359844D01*
Y352507D02*
X143350Y350155D01*
Y342601D02*
Y350155D01*
Y342601D02*
X145981Y339970D01*
X158850D01*
X139954Y326091D02*
X227330D01*
X230914Y322507D01*
Y295201D02*
Y322507D01*
X239082Y305201D02*
Y326023D01*
X234950Y330155D02*
X239082Y326023D01*
X145207Y330155D02*
X234950D01*
X139350Y336012D02*
X145207Y330155D01*
X139350Y336012D02*
Y348483D01*
X118308Y369525D02*
X139350Y348483D01*
X34140Y59944D02*
Y68027D01*
X36725Y70612D01*
X41910D01*
X54610Y59944D02*
Y70612D01*
X67310Y59944D02*
Y70612D01*
X41910Y46482D02*
X54610D01*
X67310D01*
X34140Y59944D02*
X41910D01*
X94617Y61931D02*
Y66723D01*
X90728Y70612D02*
X94617Y66723D01*
X80010Y70612D02*
X90728D01*
X80010Y59944D02*
X87780D01*
X80010Y46482D02*
X87780D01*
D12*
X12700Y355600D02*
D03*
Y330200D02*
D03*
Y304800D02*
D03*
Y279400D02*
D03*
Y254000D02*
D03*
Y228600D02*
D03*
Y203200D02*
D03*
Y177800D02*
D03*
Y152400D02*
D03*
Y127000D02*
D03*
Y101600D02*
D03*
Y76200D02*
D03*
X317500Y355600D02*
D03*
Y330200D02*
D03*
Y304800D02*
D03*
Y279400D02*
D03*
Y254000D02*
D03*
Y228600D02*
D03*
Y203200D02*
D03*
Y177800D02*
D03*
Y152400D02*
D03*
Y127000D02*
D03*
Y101600D02*
D03*
Y76200D02*
D03*
D13*
X19050Y25400D02*
D03*
X310896D02*
D03*
X19050Y406400D02*
D03*
X311150D02*
D03*
D14*
X142200Y378800D02*
D03*
Y404200D02*
D03*
X167600Y378800D02*
D03*
Y404200D02*
D03*
X193000Y378800D02*
D03*
Y404200D02*
D03*
X218400Y378800D02*
D03*
Y404200D02*
D03*
X243800Y378800D02*
D03*
X141700Y143200D02*
D03*
X167100Y117800D02*
D03*
Y143200D02*
D03*
X192500Y117800D02*
D03*
Y143200D02*
D03*
X217900Y117800D02*
D03*
Y143200D02*
D03*
X243300Y117800D02*
D03*
Y143200D02*
D03*
X141950Y58450D02*
D03*
X167350Y33050D02*
D03*
Y58450D02*
D03*
X192750Y33050D02*
D03*
Y58450D02*
D03*
X218150Y33050D02*
D03*
Y58450D02*
D03*
X243550Y33050D02*
D03*
Y58450D02*
D03*
D15*
X243800Y404200D02*
D03*
X141700Y117800D02*
D03*
X141950Y33050D02*
D03*
D16*
X57000Y296000D02*
D03*
X106500Y125750D02*
D03*
X100500Y136500D02*
D03*
X107000Y145000D02*
D03*
X34036Y46437D02*
D03*
X234511Y180759D02*
D03*
X247512Y180259D02*
D03*
X264263Y169258D02*
D03*
X261013Y180009D02*
D03*
X280670Y188169D02*
D03*
X267970Y158197D02*
D03*
X133750Y158500D02*
D03*
X22000Y291500D02*
D03*
X41402Y282702D02*
D03*
X215138Y191979D02*
D03*
X154686Y15449D02*
D03*
X152146Y41611D02*
D03*
X127079Y102180D02*
D03*
X159512Y127463D02*
D03*
X120544Y111461D02*
D03*
X233680Y133305D02*
D03*
X302260Y163785D02*
D03*
X279146Y129241D02*
D03*
X225806Y133305D02*
D03*
X247904Y342855D02*
D03*
X278130Y108370D02*
D03*
X100330Y50501D02*
D03*
X45466Y141433D02*
D03*
X76708Y163531D02*
D03*
X285242Y237699D02*
D03*
X290806Y247306D02*
D03*
X298958Y247097D02*
D03*
X34544Y329393D02*
D03*
X247904Y354539D02*
D03*
X39876Y203200D02*
D03*
X103632Y419563D02*
D03*
X279400Y389845D02*
D03*
X53848Y128225D02*
D03*
X177292Y91141D02*
D03*
X121666Y73869D02*
D03*
X243300D02*
D03*
X210820Y280879D02*
D03*
X203962Y299929D02*
D03*
X45466Y303739D02*
D03*
X38544Y175977D02*
D03*
X77216Y112477D02*
D03*
X66040Y104603D02*
D03*
X118308Y369525D02*
D03*
X208026Y100539D02*
D03*
X286512Y338791D02*
D03*
X94130Y106426D02*
D03*
Y119888D02*
D03*
X130556Y73510D02*
D03*
X144018D02*
D03*
X94617Y61931D02*
D03*
X150497Y88519D02*
D03*
X34140Y46482D02*
D03*
Y59944D02*
D03*
X87780Y46482D02*
D03*
Y59944D02*
D03*
X79080Y255201D02*
D03*
Y235199D02*
D03*
X188850Y339970D02*
D03*
X146499Y357983D02*
D03*
X128850Y339970D02*
D03*
X208850D02*
D03*
X98618Y190200D02*
D03*
X266787Y310200D02*
D03*
X239082Y305201D02*
D03*
X258620Y300200D02*
D03*
X230914Y295201D02*
D03*
X266787Y290200D02*
D03*
X239082Y285201D02*
D03*
X258620Y280200D02*
D03*
X230914Y275201D02*
D03*
X266787Y270200D02*
D03*
X239082Y265201D02*
D03*
X258620Y260200D02*
D03*
X230914Y255201D02*
D03*
X258620Y240200D02*
D03*
X266787Y230200D02*
D03*
X258620Y220200D02*
D03*
X230914Y215199D02*
D03*
X266787Y210200D02*
D03*
X239082Y205199D02*
D03*
X258620Y200200D02*
D03*
X230914Y195199D02*
D03*
X266787Y190200D02*
D03*
X106786Y310200D02*
D03*
X79080Y305201D02*
D03*
X98618Y300200D02*
D03*
X70912Y295201D02*
D03*
X106786Y290200D02*
D03*
X79080Y285201D02*
D03*
X98618Y280200D02*
D03*
X70912Y275201D02*
D03*
X106786Y270200D02*
D03*
X79080Y265201D02*
D03*
X98618Y260200D02*
D03*
X106786Y250200D02*
D03*
X79080Y245199D02*
D03*
X98618Y240200D02*
D03*
X106786Y230200D02*
D03*
X98618Y220200D02*
D03*
X70912Y215199D02*
D03*
X106786Y210200D02*
D03*
X79080Y205199D02*
D03*
X98618Y200200D02*
D03*
X70912Y195199D02*
D03*
X228850Y348138D02*
D03*
X223851Y320432D02*
D03*
X218850Y339970D02*
D03*
X213851Y312264D02*
D03*
X203851Y320432D02*
D03*
X198850Y339970D02*
D03*
X193851Y312264D02*
D03*
X183851Y320432D02*
D03*
X178850Y339970D02*
D03*
X173852Y312264D02*
D03*
X168850Y348138D02*
D03*
X163850Y320432D02*
D03*
X158850Y339970D02*
D03*
X153849Y312264D02*
D03*
X148850Y348138D02*
D03*
X143849Y320432D02*
D03*
X133849Y312264D02*
D03*
X123849Y320432D02*
D03*
X113849Y312264D02*
D03*
X108850Y348138D02*
D03*
X228850Y188136D02*
D03*
X223851Y160430D02*
D03*
X218850Y179968D02*
D03*
X208850Y188136D02*
D03*
X203851Y160430D02*
D03*
X198850Y179968D02*
D03*
X188850Y188136D02*
D03*
X183851Y160430D02*
D03*
X178850Y179968D02*
D03*
X168850Y188136D02*
D03*
X163850Y160430D02*
D03*
X158850Y179968D02*
D03*
X153849Y152262D02*
D03*
X148850Y188136D02*
D03*
X143849Y160430D02*
D03*
X138850Y179968D02*
D03*
X128850Y188136D02*
D03*
X123849Y160430D02*
D03*
X118850Y179968D02*
D03*
X113849Y152262D02*
D03*
X108850Y188136D02*
D03*
X189992Y358290D02*
D03*
X203454D02*
D03*
X267716Y257960D02*
D03*
X281178D02*
D03*
X71270Y321564D02*
D03*
X56642Y237640D02*
D03*
X70104D02*
D03*
X120142Y342750D02*
D03*
X56642Y257960D02*
D03*
X70104D02*
D03*
X86614Y94830D02*
D03*
X63754D02*
D03*
X109474D02*
D03*
X241046Y171600D02*
D03*
X26520Y69596D02*
D03*
Y83058D02*
D03*
M02*
