G04 Layer_Color=16711935*
%FSLAX44Y44*%
%MOMM*%
G71*
G01*
G75*
%ADD34R,1.0000X0.8000*%
G04:AMPARAMS|DCode=35|XSize=1.8002mm|YSize=1.8002mm|CornerRadius=0mm|HoleSize=0mm|Usage=FLASHONLY|Rotation=270.000|XOffset=0mm|YOffset=0mm|HoleType=Round|Shape=Octagon|*
%AMOCTAGOND35*
4,1,8,-0.4501,-0.9001,0.4501,-0.9001,0.9001,-0.4501,0.9001,0.4501,0.4501,0.9001,-0.4501,0.9001,-0.9001,0.4501,-0.9001,-0.4501,-0.4501,-0.9001,0.0*
%
%ADD35OCTAGOND35*%

%ADD36C,1.2000*%
%ADD37C,1.6000*%
G04:AMPARAMS|DCode=38|XSize=1.6mm|YSize=1.6mm|CornerRadius=0mm|HoleSize=0mm|Usage=FLASHONLY|Rotation=180.000|XOffset=0mm|YOffset=0mm|HoleType=Round|Shape=Octagon|*
%AMOCTAGOND38*
4,1,8,-0.8000,0.4000,-0.8000,-0.4000,-0.4000,-0.8000,0.4000,-0.8000,0.8000,-0.4000,0.8000,0.4000,0.4000,0.8000,-0.4000,0.8000,-0.8000,0.4000,0.0*
%
%ADD38OCTAGOND38*%

%ADD39R,0.8000X1.0000*%
%ADD40R,1.3998X0.4498*%
%ADD41R,0.4498X1.3998*%
%ADD42R,4.0100X2.2066*%
%ADD43R,1.6986X2.2066*%
D34*
X34290Y69596D02*
D03*
Y83058D02*
D03*
X46990Y69596D02*
D03*
Y83058D02*
D03*
X86360Y119888D02*
D03*
Y106426D02*
D03*
X63500Y308102D02*
D03*
Y321564D02*
D03*
X118750Y138858D02*
D03*
Y125396D02*
D03*
D35*
X317500Y76200D02*
D03*
Y101600D02*
D03*
Y127000D02*
D03*
Y152400D02*
D03*
Y177800D02*
D03*
Y203200D02*
D03*
Y228600D02*
D03*
Y254000D02*
D03*
Y279400D02*
D03*
Y304800D02*
D03*
Y330200D02*
D03*
Y355600D02*
D03*
X12700Y76200D02*
D03*
Y101600D02*
D03*
Y127000D02*
D03*
Y152400D02*
D03*
Y177800D02*
D03*
Y203200D02*
D03*
Y228600D02*
D03*
Y254000D02*
D03*
Y279400D02*
D03*
Y304800D02*
D03*
Y330200D02*
D03*
Y355600D02*
D03*
D36*
X311150Y406400D02*
D03*
X19050D02*
D03*
X310896Y25400D02*
D03*
X19050D02*
D03*
D37*
X243800Y404200D02*
D03*
X141700Y117800D02*
D03*
X141950Y33050D02*
D03*
D38*
X243800Y378800D02*
D03*
X218400Y404200D02*
D03*
Y378800D02*
D03*
X193000Y404200D02*
D03*
Y378800D02*
D03*
X167600Y404200D02*
D03*
Y378800D02*
D03*
X142200Y404200D02*
D03*
Y378800D02*
D03*
X243300Y143200D02*
D03*
Y117800D02*
D03*
X217900Y143200D02*
D03*
Y117800D02*
D03*
X192500Y143200D02*
D03*
Y117800D02*
D03*
X167100Y143200D02*
D03*
Y117800D02*
D03*
X141700Y143200D02*
D03*
X243550Y58450D02*
D03*
Y33050D02*
D03*
X218150Y58450D02*
D03*
Y33050D02*
D03*
X192750Y58450D02*
D03*
Y33050D02*
D03*
X167350Y58450D02*
D03*
Y33050D02*
D03*
X141950Y58450D02*
D03*
D39*
X144018Y81280D02*
D03*
X130556D02*
D03*
X189992Y350520D02*
D03*
X203454D02*
D03*
X281178Y250190D02*
D03*
X267716D02*
D03*
X254508Y163830D02*
D03*
X241046D02*
D03*
X56642Y229870D02*
D03*
X70104D02*
D03*
X120142Y350520D02*
D03*
X133604D02*
D03*
X56642Y250190D02*
D03*
X70104D02*
D03*
D40*
X248851Y310200D02*
D03*
Y305201D02*
D03*
Y300200D02*
D03*
Y295201D02*
D03*
Y290200D02*
D03*
Y285201D02*
D03*
Y280200D02*
D03*
Y275201D02*
D03*
Y270200D02*
D03*
Y265201D02*
D03*
Y260200D02*
D03*
Y255201D02*
D03*
Y250200D02*
D03*
Y245199D02*
D03*
Y240200D02*
D03*
Y235199D02*
D03*
Y230200D02*
D03*
Y225199D02*
D03*
Y220200D02*
D03*
Y215199D02*
D03*
Y210200D02*
D03*
Y205199D02*
D03*
Y200200D02*
D03*
Y195199D02*
D03*
Y190200D02*
D03*
X88849D02*
D03*
Y195199D02*
D03*
Y200200D02*
D03*
Y205199D02*
D03*
Y210200D02*
D03*
Y215199D02*
D03*
Y220200D02*
D03*
Y225199D02*
D03*
Y230200D02*
D03*
Y235199D02*
D03*
Y240200D02*
D03*
Y245199D02*
D03*
Y250200D02*
D03*
Y255201D02*
D03*
Y260200D02*
D03*
Y265201D02*
D03*
Y270200D02*
D03*
Y275201D02*
D03*
Y280200D02*
D03*
Y285201D02*
D03*
Y290200D02*
D03*
Y295201D02*
D03*
Y300200D02*
D03*
Y305201D02*
D03*
Y310200D02*
D03*
D41*
X228850Y170199D02*
D03*
X223851D02*
D03*
X218850D02*
D03*
X213851D02*
D03*
X208850D02*
D03*
X203851D02*
D03*
X198850D02*
D03*
X193851D02*
D03*
X188850D02*
D03*
X183851D02*
D03*
X178850D02*
D03*
X173852D02*
D03*
X168850D02*
D03*
X163850D02*
D03*
X158850D02*
D03*
X153849D02*
D03*
X148850D02*
D03*
X143849D02*
D03*
X138850D02*
D03*
X133849D02*
D03*
X128850D02*
D03*
X123849D02*
D03*
X118850D02*
D03*
X113849D02*
D03*
X108850D02*
D03*
Y330201D02*
D03*
X113849D02*
D03*
X118850D02*
D03*
X123849D02*
D03*
X128850D02*
D03*
X133849D02*
D03*
X138850D02*
D03*
X143849D02*
D03*
X148850D02*
D03*
X153849D02*
D03*
X158850D02*
D03*
X163850D02*
D03*
X168850D02*
D03*
X173852D02*
D03*
X178850D02*
D03*
X183851D02*
D03*
X188850D02*
D03*
X193851D02*
D03*
X198850D02*
D03*
X203851D02*
D03*
X208850D02*
D03*
X213851D02*
D03*
X218850D02*
D03*
X223851D02*
D03*
X228850D02*
D03*
D42*
X86360Y18034D02*
D03*
D43*
X109474Y81026D02*
D03*
X86614D02*
D03*
X63754D02*
D03*
M02*
