M48
;Layer_Color=9474304
;FILE_FORMAT=4:4
METRIC,LZ
;TYPE=PLATED
T1F00S00C0.2000
T2F00S00C0.9144
T3F00S00C1.0000
T4F00S00C2.0000
%
T01
X00034036Y00046437
X0003414Y00046482
Y00059944
X0002652Y00069596
Y00083058
X00063754Y0009483
X0006604Y00104603
X00077216Y00112477
X0009413Y00106426
Y00119888
X0011098Y00125396
X00106934Y00132035
X0011098Y00138858
X00113849Y00152262
X00123849Y0016043
X0013375Y001585
X00143849Y0016043
X00153849Y00152262
X0016385Y0016043
X00183851
X00203851
X0019885Y00179968
X0018885Y00188136
X0017885Y00179968
X0016885Y00188136
X0015885Y00179968
X0014885Y00188136
X0013885Y00179968
X0012885Y00188136
X0011885Y00179968
X0010885Y00188136
X00098618Y001902
Y002002
X00106786Y002102
X00098618Y002202
X00106786Y002302
X00098618Y002402
X00106786Y002502
X00098618Y002602
X00106786Y002702
X00098618Y002802
X00106786Y002902
X00098618Y003002
X00106786Y003102
X00113849Y00312264
X00123849Y00320432
X00133849Y00312264
X00143849Y00320432
X00153849Y00312264
X0016385Y00320432
X00173852Y00312264
X00183851Y00320432
X00193851Y00312264
X00203851Y00320432
X00213851Y00312264
X00203962Y00299929
X0021082Y00280879
X0020885Y0033997
X0019885
X0018885
X0017885
X0016885Y00348138
X0015885Y0033997
X0014885Y00348138
X00146499Y00357983
X00133604Y0034275
X0012885Y0033997
X00120142Y0034275
X0010885Y00348138
X00118308Y00369525
X00189992Y0035829
X00203454
X0021885Y0033997
X00215138Y00191979
X0020885Y00188136
X0021885Y00179968
X00208026Y00100539
X00177292Y00091141
X00150497Y00088519
X00144018Y0007351
X00130556
X00121666Y00073869
X00109474Y0009483
X00086614
X0008778Y00059944
X00094617Y00061931
X0010033Y00050501
X0008778Y00046482
X00152146Y00041611
X00154686Y00015449
X00127079Y0010218
X00120544Y00111461
X00159512Y00127463
X00053848Y00128225
X00045466Y00141433
X00038544Y00175977
X00039876Y002032
X00070912Y00195199
X0007908Y00205199
X00070912Y00215199
X00070104Y0023764
X0007908Y00235199
Y00245199
Y00255201
Y00265201
X00070104Y0025796
X00056642
Y0023764
X00070912Y00275201
X0007908Y00285201
X00070912Y00295201
X0007127Y00308102
X0007908Y00305201
X0007127Y00321564
X00045466Y00303739
X00041402Y00282702
X00022Y002915
X00034544Y00329393
X00076708Y00163531
X00223851Y0016043
X00241046Y001716
X00247512Y00180259
X00234511Y00180759
X0022885Y00188136
X00230914Y00195199
X00239082Y00205199
X00230914Y00215199
X0025862Y002202
X00266787Y002102
X0025862Y002002
X00266787Y001902
X0028067Y00188169
X00261013Y00180009
X00264263Y00169258
X0026797Y00158197
X0030226Y00163785
X00279146Y00129241
X0027813Y0010837
X002433Y00073869
X0023368Y00133305
X00225806
X00230914Y00255201
X00239082Y00265201
X00230914Y00275201
X00239082Y00285201
X00230914Y00295201
X00239082Y00305201
X0025862Y003002
X00266787Y002902
X0025862Y002802
X00266787Y002702
X00267716Y0025796
X0025862Y002602
Y002402
X00266787Y002302
X00285242Y00237699
X00290806Y00247306
X00298958Y00247097
X00281178Y0025796
X00266787Y003102
X00286512Y00338791
X00247904Y00342855
Y00354539
X0022885Y00348138
X00223851Y00320432
X002794Y00389845
X00103632Y00419563
T02
X0014195Y0003305
X0016735
X0019275
X0021815
Y0005845
X0019275
X0016735
X0014195
X001417Y001178
X001671
X001925
X002179
Y001432
X001925
X001671
X001417
X001422Y003788
X001676
X00193
X002184
X002438
X002433Y001432
Y001178
X0024355Y0005845
Y0003305
X002438Y004042
X002184
X00193
X001676
X001422
T03
X000127Y000762
Y001016
Y00127
Y001524
Y001778
Y002032
Y002286
Y00254
Y002794
Y003048
Y003302
Y003556
X003175
Y003302
Y003048
Y002794
Y00254
Y002286
Y002032
Y001778
Y001524
Y00127
Y001016
Y000762
T04
X0001905Y000254
X00310896
X0031115Y004064
X0001905
M30
