G04 Layer_Color=8388736*
%FSLAX44Y44*%
%MOMM*%
G71*
G01*
G75*
%ADD34R,1.0000X0.8000*%
G04:AMPARAMS|DCode=35|XSize=1.8002mm|YSize=1.8002mm|CornerRadius=0mm|HoleSize=0mm|Usage=FLASHONLY|Rotation=270.000|XOffset=0mm|YOffset=0mm|HoleType=Round|Shape=Octagon|*
%AMOCTAGOND35*
4,1,8,-0.4501,-0.9001,0.4501,-0.9001,0.9001,-0.4501,0.9001,0.4501,0.4501,0.9001,-0.4501,0.9001,-0.9001,0.4501,-0.9001,-0.4501,-0.4501,-0.9001,0.0*
%
%ADD35OCTAGOND35*%

%ADD36C,1.2000*%
%ADD37C,1.6000*%
G04:AMPARAMS|DCode=38|XSize=1.6mm|YSize=1.6mm|CornerRadius=0mm|HoleSize=0mm|Usage=FLASHONLY|Rotation=180.000|XOffset=0mm|YOffset=0mm|HoleType=Round|Shape=Octagon|*
%AMOCTAGOND38*
4,1,8,-0.8000,0.4000,-0.8000,-0.4000,-0.4000,-0.8000,0.4000,-0.8000,0.8000,-0.4000,0.8000,0.4000,0.4000,0.8000,-0.4000,0.8000,-0.8000,0.4000,0.0*
%
%ADD38OCTAGOND38*%

D34*
X80010Y84074D02*
D03*
Y70612D02*
D03*
X67310Y84074D02*
D03*
Y70612D02*
D03*
X54610Y84074D02*
D03*
Y70612D02*
D03*
X41910Y84074D02*
D03*
Y70612D02*
D03*
Y59944D02*
D03*
Y46482D02*
D03*
X54610Y59944D02*
D03*
Y46482D02*
D03*
X80010Y59944D02*
D03*
Y46482D02*
D03*
X67310Y59944D02*
D03*
Y46482D02*
D03*
D35*
X317500Y76200D02*
D03*
Y101600D02*
D03*
Y127000D02*
D03*
Y152400D02*
D03*
Y177800D02*
D03*
Y203200D02*
D03*
Y228600D02*
D03*
Y254000D02*
D03*
Y279400D02*
D03*
Y304800D02*
D03*
Y330200D02*
D03*
Y355600D02*
D03*
X12700Y76200D02*
D03*
Y101600D02*
D03*
Y127000D02*
D03*
Y152400D02*
D03*
Y177800D02*
D03*
Y203200D02*
D03*
Y228600D02*
D03*
Y254000D02*
D03*
Y279400D02*
D03*
Y304800D02*
D03*
Y330200D02*
D03*
Y355600D02*
D03*
D36*
X311150Y406400D02*
D03*
X19050D02*
D03*
X310896Y25400D02*
D03*
X19050D02*
D03*
D37*
X243800Y404200D02*
D03*
X141700Y117800D02*
D03*
X141950Y33050D02*
D03*
D38*
X243800Y378800D02*
D03*
X218400Y404200D02*
D03*
Y378800D02*
D03*
X193000Y404200D02*
D03*
Y378800D02*
D03*
X167600Y404200D02*
D03*
Y378800D02*
D03*
X142200Y404200D02*
D03*
Y378800D02*
D03*
X243300Y143200D02*
D03*
Y117800D02*
D03*
X217900Y143200D02*
D03*
Y117800D02*
D03*
X192500Y143200D02*
D03*
Y117800D02*
D03*
X167100Y143200D02*
D03*
Y117800D02*
D03*
X141700Y143200D02*
D03*
X243550Y58450D02*
D03*
Y33050D02*
D03*
X218150Y58450D02*
D03*
Y33050D02*
D03*
X192750Y58450D02*
D03*
Y33050D02*
D03*
X167350Y58450D02*
D03*
Y33050D02*
D03*
X141950Y58450D02*
D03*
M02*
