G04 Layer_Color=9279142*
%FSLAX44Y44*%
%MOMM*%
G71*
G01*
G75*
%ADD11C,0.2000*%
%ADD32C,0.1500*%
%ADD33C,0.1270*%
G36*
X222390Y273090D02*
X123230D01*
Y299868D01*
X222390D01*
Y273090D01*
D02*
G37*
G36*
X50800Y0D02*
X0D01*
Y50800D01*
X50800Y0D01*
D02*
G37*
G36*
X330200D02*
X279400D01*
X330200Y50950D01*
Y0D01*
D02*
G37*
%LPC*%
G36*
X152102Y285598D02*
X143889D01*
Y281412D01*
X152102D01*
Y285598D01*
D02*
G37*
G36*
X190780Y297368D02*
X186122D01*
X177688Y275590D01*
X182346D01*
X184139Y280531D01*
X192888D01*
X194776Y275590D01*
X199529D01*
X190780Y297368D01*
D02*
G37*
G36*
X175453D02*
X168845D01*
X164974Y282482D01*
X161071Y297368D01*
X154494D01*
Y275590D01*
X158554D01*
Y292710D01*
X162834Y275590D01*
X167082D01*
X171362Y292710D01*
X171394Y275590D01*
X175453D01*
Y297368D01*
D02*
G37*
G36*
X219229D02*
X214099D01*
X209788Y290853D01*
X205476Y297368D01*
X200347D01*
X207176Y286919D01*
X199654Y275590D01*
X204942D01*
X209788Y282954D01*
X214603Y275590D01*
X219890D01*
X212400Y286919D01*
X219229Y297368D01*
D02*
G37*
G36*
X135014Y291734D02*
X134794D01*
X134227Y291703D01*
X133661Y291609D01*
X133157Y291483D01*
X132654Y291325D01*
X132182Y291105D01*
X131772Y290885D01*
X131363Y290633D01*
X131017Y290413D01*
X130702Y290161D01*
X130419Y289909D01*
X130167Y289689D01*
X129979Y289468D01*
X129821Y289311D01*
X129695Y289185D01*
X129632Y289091D01*
X129601Y289059D01*
Y291388D01*
X125730D01*
Y275590D01*
X129916D01*
Y282702D01*
Y283174D01*
Y283615D01*
X129947Y284024D01*
X129979Y284370D01*
Y284716D01*
X130010Y285000D01*
X130042Y285283D01*
X130073Y285503D01*
X130136Y285881D01*
X130167Y286133D01*
X130230Y286290D01*
Y286322D01*
X130356Y286668D01*
X130545Y287014D01*
X130734Y287266D01*
X130923Y287517D01*
X131111Y287675D01*
X131269Y287832D01*
X131363Y287895D01*
X131395Y287927D01*
X131741Y288115D01*
X132087Y288273D01*
X132402Y288367D01*
X132717Y288461D01*
X132968Y288493D01*
X133157Y288524D01*
X133346D01*
X133661Y288493D01*
X133944Y288461D01*
X134164Y288398D01*
X134384Y288304D01*
X134573Y288210D01*
X134699Y288147D01*
X134762Y288115D01*
X134794Y288084D01*
X135014Y287927D01*
X135171Y287738D01*
X135454Y287360D01*
X135549Y287171D01*
X135612Y287045D01*
X135675Y286951D01*
Y286919D01*
X135738Y286762D01*
X135769Y286573D01*
X135832Y286101D01*
X135895Y285535D01*
X135927Y285000D01*
X135958Y284465D01*
Y284244D01*
Y284024D01*
Y283867D01*
Y283741D01*
Y283647D01*
Y283615D01*
Y275590D01*
X140143D01*
Y285377D01*
Y286038D01*
X140112Y286573D01*
X140081Y287077D01*
X140018Y287454D01*
X139986Y287769D01*
X139923Y287989D01*
X139892Y288147D01*
Y288178D01*
X139797Y288556D01*
X139671Y288871D01*
X139546Y289185D01*
X139388Y289437D01*
X139262Y289657D01*
X139168Y289815D01*
X139105Y289909D01*
X139073Y289941D01*
X138822Y290224D01*
X138539Y290476D01*
X138255Y290696D01*
X137972Y290885D01*
X137720Y291042D01*
X137500Y291136D01*
X137374Y291199D01*
X137311Y291231D01*
X136871Y291388D01*
X136430Y291514D01*
X136021Y291609D01*
X135643Y291672D01*
X135297Y291703D01*
X135014Y291734D01*
D02*
G37*
%LPD*%
G36*
X191472Y284213D02*
X185461D01*
X188419Y292301D01*
X191472Y284213D01*
D02*
G37*
D11*
X94000Y350750D02*
Y432250D01*
X292000D01*
X94000Y350750D02*
X292000D01*
Y432250D01*
X213500Y415750D02*
Y432250D01*
X172750Y415750D02*
X213500D01*
X172750D02*
Y432250D01*
X212750Y89750D02*
Y106250D01*
X172000D02*
X212750D01*
X172000Y89750D02*
Y106250D01*
X93500Y89750D02*
Y171250D01*
X291500D01*
X93500Y89750D02*
X291500D01*
Y171250D01*
X213000Y5000D02*
Y21500D01*
X172250D02*
X213000D01*
X172250Y5000D02*
Y21500D01*
X93750Y5000D02*
Y86500D01*
X291750D01*
X93750Y5000D02*
X291750D01*
Y86500D01*
X77503Y94000D02*
X85500D01*
Y99332D01*
X77503Y101997D02*
X85500D01*
Y105996D01*
X84167Y107329D01*
X78836D01*
X77503Y105996D01*
Y101997D01*
X85500Y115326D02*
Y109995D01*
X80168Y115326D01*
X78836D01*
X77503Y113994D01*
Y111328D01*
X78836Y109995D01*
X63253Y94000D02*
X71250D01*
Y99332D01*
X63253Y101997D02*
X71250D01*
Y105996D01*
X69917Y107329D01*
X64585D01*
X63253Y105996D01*
Y101997D01*
X71250Y109995D02*
Y112661D01*
Y111328D01*
X63253D01*
X64585Y109995D01*
X50753Y94000D02*
X58750D01*
Y99332D01*
X50753Y101997D02*
X58750D01*
Y105996D01*
X57417Y107329D01*
X52085D01*
X50753Y105996D01*
Y101997D01*
X52085Y109995D02*
X50753Y111328D01*
Y113994D01*
X52085Y115326D01*
X53418D01*
X54751Y113994D01*
Y112661D01*
Y113994D01*
X56084Y115326D01*
X57417D01*
X58750Y113994D01*
Y111328D01*
X57417Y109995D01*
X37003Y94000D02*
X45000D01*
Y99332D01*
X37003Y101997D02*
X45000D01*
Y105996D01*
X43667Y107329D01*
X38335D01*
X37003Y105996D01*
Y101997D01*
X45000Y113994D02*
X37003D01*
X41001Y109995D01*
Y115326D01*
X70082Y390997D02*
X67416D01*
X68749D01*
Y384333D01*
X67416Y383000D01*
X66083D01*
X64750Y384333D01*
X72747Y383000D02*
Y390997D01*
X76746D01*
X78079Y389664D01*
Y386999D01*
X76746Y385666D01*
X72747D01*
X80745Y383000D02*
X83411D01*
X82078D01*
Y390997D01*
X80745Y389664D01*
X69832Y139747D02*
X67166D01*
X68499D01*
Y133083D01*
X67166Y131750D01*
X65833D01*
X64500Y133083D01*
X72497Y131750D02*
Y139747D01*
X76496D01*
X77829Y138414D01*
Y135749D01*
X76496Y134416D01*
X72497D01*
X80495Y138414D02*
X81828Y139747D01*
X84494D01*
X85826Y138414D01*
Y137082D01*
X84494Y135749D01*
X83161D01*
X84494D01*
X85826Y134416D01*
Y133083D01*
X84494Y131750D01*
X81828D01*
X80495Y133083D01*
X71582Y24247D02*
X68916D01*
X70249D01*
Y17583D01*
X68916Y16250D01*
X67583D01*
X66250Y17583D01*
X74247Y16250D02*
Y24247D01*
X78246D01*
X79579Y22915D01*
Y20249D01*
X78246Y18916D01*
X74247D01*
X87576Y16250D02*
X82245D01*
X87576Y21582D01*
Y22915D01*
X86243Y24247D01*
X83578D01*
X82245Y22915D01*
D32*
X330650Y406400D02*
G03*
X330650Y406400I-19500J0D01*
G01*
X38550D02*
G03*
X38550Y406400I-19500J0D01*
G01*
X330396Y25400D02*
G03*
X330396Y25400I-19500J0D01*
G01*
X38550D02*
G03*
X38550Y25400I-19500J0D01*
G01*
X73760Y75720D02*
X86460D01*
X73660Y89408D02*
X86510D01*
X73660Y65278D02*
Y89408D01*
Y65278D02*
X86510D01*
Y89408D01*
X61060Y75720D02*
X73760D01*
X60960Y89408D02*
X73810D01*
X60960Y65278D02*
Y89408D01*
Y65278D02*
X73810D01*
Y89408D01*
X48360Y75720D02*
X61060D01*
X48260Y89408D02*
X61110D01*
X48260Y65278D02*
Y89408D01*
Y65278D02*
X61110D01*
Y89408D01*
X35660Y75720D02*
X48360D01*
X35560Y89408D02*
X48410D01*
X35560Y65278D02*
Y89408D01*
Y65278D02*
X48410D01*
Y89408D01*
X48260Y41148D02*
Y65278D01*
X35560Y41148D02*
X48260D01*
X35560D02*
Y65278D01*
X48260D01*
X60960Y41148D02*
Y65278D01*
X48260Y41148D02*
X60960D01*
X48260D02*
Y65278D01*
X60960D01*
X86360Y41148D02*
Y65278D01*
X73660Y41148D02*
X86360D01*
X73660D02*
Y65278D01*
X86360D01*
X73660Y41148D02*
Y65278D01*
X60960Y41148D02*
X73660D01*
X60960D02*
Y65278D01*
X73660D01*
D33*
X25400Y323850D02*
Y336550D01*
Y349250D02*
Y361950D01*
Y298450D02*
Y311150D01*
Y247650D02*
Y260350D01*
Y273050D02*
Y285750D01*
Y222250D02*
Y234950D01*
Y171450D02*
Y184150D01*
Y196850D02*
Y209550D01*
Y146050D02*
Y158750D01*
Y95250D02*
Y107950D01*
Y120650D02*
Y133350D01*
Y69850D02*
Y82550D01*
X304800Y349250D02*
Y361950D01*
X311150Y368300D01*
X323850D02*
X330200Y361950D01*
X311150Y368300D02*
X323850D01*
X304800Y336550D02*
X311150Y342900D01*
X304800Y323850D02*
Y336550D01*
Y323850D02*
X311150Y317500D01*
X323850D01*
X330200Y323850D01*
Y336550D01*
X323850Y342900D02*
X330200Y336550D01*
X304800Y349250D02*
X311150Y342900D01*
X323850D01*
X330200Y349250D01*
Y361950D01*
X304800Y273050D02*
Y285750D01*
X311150Y292100D01*
X323850D02*
X330200Y285750D01*
X304800Y311150D02*
X311150Y317500D01*
X304800Y298450D02*
Y311150D01*
Y298450D02*
X311150Y292100D01*
X323850D01*
X330200Y298450D01*
Y311150D01*
X323850Y317500D02*
X330200Y311150D01*
X304800Y260350D02*
X311150Y266700D01*
X304800Y247650D02*
Y260350D01*
Y247650D02*
X311150Y241300D01*
X323850D01*
X330200Y247650D01*
Y260350D01*
X323850Y266700D02*
X330200Y260350D01*
X304800Y273050D02*
X311150Y266700D01*
X323850D01*
X330200Y273050D01*
Y285750D01*
X304800Y196850D02*
Y209550D01*
X311150Y215900D01*
X323850D02*
X330200Y209550D01*
X304800Y234950D02*
X311150Y241300D01*
X304800Y222250D02*
Y234950D01*
Y222250D02*
X311150Y215900D01*
X323850D01*
X330200Y222250D01*
Y234950D01*
X323850Y241300D02*
X330200Y234950D01*
X304800Y184150D02*
X311150Y190500D01*
X304800Y171450D02*
Y184150D01*
Y171450D02*
X311150Y165100D01*
X323850D01*
X330200Y171450D01*
Y184150D01*
X323850Y190500D02*
X330200Y184150D01*
X304800Y196850D02*
X311150Y190500D01*
X323850D01*
X330200Y196850D01*
Y209550D01*
X304800Y120650D02*
Y133350D01*
X311150Y139700D01*
X323850D02*
X330200Y133350D01*
X304800Y158750D02*
X311150Y165100D01*
X304800Y146050D02*
Y158750D01*
Y146050D02*
X311150Y139700D01*
X323850D01*
X330200Y146050D01*
Y158750D01*
X323850Y165100D02*
X330200Y158750D01*
X304800Y107950D02*
X311150Y114300D01*
X304800Y95250D02*
Y107950D01*
Y95250D02*
X311150Y88900D01*
X323850D01*
X330200Y95250D01*
Y107950D01*
X323850Y114300D02*
X330200Y107950D01*
X304800Y120650D02*
X311150Y114300D01*
X323850D01*
X330200Y120650D01*
Y133350D01*
X304800Y82550D02*
X311150Y88900D01*
X304800Y69850D02*
Y82550D01*
Y69850D02*
X311150Y63500D01*
X323850D01*
X330200Y69850D01*
Y82550D01*
X323850Y88900D02*
X330200Y82550D01*
X0Y349250D02*
Y361950D01*
X6350Y368300D01*
X19050D02*
X25400Y361950D01*
X6350Y368300D02*
X19050D01*
X0Y336550D02*
X6350Y342900D01*
X0Y323850D02*
Y336550D01*
Y323850D02*
X6350Y317500D01*
X19050D01*
X25400Y323850D01*
X19050Y342900D02*
X25400Y336550D01*
X0Y349250D02*
X6350Y342900D01*
X19050D01*
X25400Y349250D01*
X0Y273050D02*
Y285750D01*
X6350Y292100D01*
X19050D02*
X25400Y285750D01*
X0Y311150D02*
X6350Y317500D01*
X0Y298450D02*
Y311150D01*
Y298450D02*
X6350Y292100D01*
X19050D01*
X25400Y298450D01*
X19050Y317500D02*
X25400Y311150D01*
X0Y260350D02*
X6350Y266700D01*
X0Y247650D02*
Y260350D01*
Y247650D02*
X6350Y241300D01*
X19050D01*
X25400Y247650D01*
X19050Y266700D02*
X25400Y260350D01*
X0Y273050D02*
X6350Y266700D01*
X19050D01*
X25400Y273050D01*
X0Y196850D02*
Y209550D01*
X6350Y215900D01*
X19050D02*
X25400Y209550D01*
X0Y234950D02*
X6350Y241300D01*
X0Y222250D02*
Y234950D01*
Y222250D02*
X6350Y215900D01*
X19050D01*
X25400Y222250D01*
X19050Y241300D02*
X25400Y234950D01*
X0Y184150D02*
X6350Y190500D01*
X0Y171450D02*
Y184150D01*
Y171450D02*
X6350Y165100D01*
X19050D01*
X25400Y171450D01*
X19050Y190500D02*
X25400Y184150D01*
X0Y196850D02*
X6350Y190500D01*
X19050D01*
X25400Y196850D01*
X0Y120650D02*
Y133350D01*
X6350Y139700D01*
X19050D02*
X25400Y133350D01*
X0Y158750D02*
X6350Y165100D01*
X0Y146050D02*
Y158750D01*
Y146050D02*
X6350Y139700D01*
X19050D01*
X25400Y146050D01*
X19050Y165100D02*
X25400Y158750D01*
X0Y107950D02*
X6350Y114300D01*
X0Y95250D02*
Y107950D01*
Y95250D02*
X6350Y88900D01*
X19050D01*
X25400Y95250D01*
X19050Y114300D02*
X25400Y107950D01*
X0Y120650D02*
X6350Y114300D01*
X19050D01*
X25400Y120650D01*
X0Y82550D02*
X6350Y88900D01*
X0Y69850D02*
Y82550D01*
Y69850D02*
X6350Y63500D01*
X19050D01*
X25400Y69850D01*
X19050Y88900D02*
X25400Y82550D01*
M02*
