G04 Layer_Color=128*
%FSLAX44Y44*%
%MOMM*%
G71*
G01*
G75*
%ADD10R,0.8000X0.6000*%
%ADD25R,0.6000X0.8000*%
%ADD26R,1.1998X0.2498*%
%ADD27R,0.2498X1.1998*%
%ADD28R,3.8100X2.0066*%
%ADD29R,1.4986X2.0066*%
D10*
X34290Y69596D02*
D03*
Y83058D02*
D03*
X46990Y69596D02*
D03*
Y83058D02*
D03*
X86360Y119888D02*
D03*
Y106426D02*
D03*
X63500Y308102D02*
D03*
Y321564D02*
D03*
X118750Y138858D02*
D03*
Y125396D02*
D03*
D25*
X144018Y81280D02*
D03*
X130556D02*
D03*
X189992Y350520D02*
D03*
X203454D02*
D03*
X281178Y250190D02*
D03*
X267716D02*
D03*
X254508Y163830D02*
D03*
X241046D02*
D03*
X56642Y229870D02*
D03*
X70104D02*
D03*
X120142Y350520D02*
D03*
X133604D02*
D03*
X56642Y250190D02*
D03*
X70104D02*
D03*
D26*
X248851Y310200D02*
D03*
Y305201D02*
D03*
Y300200D02*
D03*
Y295201D02*
D03*
Y290200D02*
D03*
Y285201D02*
D03*
Y280200D02*
D03*
Y275201D02*
D03*
Y270200D02*
D03*
Y265201D02*
D03*
Y260200D02*
D03*
Y255201D02*
D03*
Y250200D02*
D03*
Y245199D02*
D03*
Y240200D02*
D03*
Y235199D02*
D03*
Y230200D02*
D03*
Y225199D02*
D03*
Y220200D02*
D03*
Y215199D02*
D03*
Y210200D02*
D03*
Y205199D02*
D03*
Y200200D02*
D03*
Y195199D02*
D03*
Y190200D02*
D03*
X88849D02*
D03*
Y195199D02*
D03*
Y200200D02*
D03*
Y205199D02*
D03*
Y210200D02*
D03*
Y215199D02*
D03*
Y220200D02*
D03*
Y225199D02*
D03*
Y230200D02*
D03*
Y235199D02*
D03*
Y240200D02*
D03*
Y245199D02*
D03*
Y250200D02*
D03*
Y255201D02*
D03*
Y260200D02*
D03*
Y265201D02*
D03*
Y270200D02*
D03*
Y275201D02*
D03*
Y280200D02*
D03*
Y285201D02*
D03*
Y290200D02*
D03*
Y295201D02*
D03*
Y300200D02*
D03*
Y305201D02*
D03*
Y310200D02*
D03*
D27*
X228850Y170199D02*
D03*
X223851D02*
D03*
X218850D02*
D03*
X213851D02*
D03*
X208850D02*
D03*
X203851D02*
D03*
X198850D02*
D03*
X193851D02*
D03*
X188850D02*
D03*
X183851D02*
D03*
X178850D02*
D03*
X173852D02*
D03*
X168850D02*
D03*
X163850D02*
D03*
X158850D02*
D03*
X153849D02*
D03*
X148850D02*
D03*
X143849D02*
D03*
X138850D02*
D03*
X133849D02*
D03*
X128850D02*
D03*
X123849D02*
D03*
X118850D02*
D03*
X113849D02*
D03*
X108850D02*
D03*
Y330201D02*
D03*
X113849D02*
D03*
X118850D02*
D03*
X123849D02*
D03*
X128850D02*
D03*
X133849D02*
D03*
X138850D02*
D03*
X143849D02*
D03*
X148850D02*
D03*
X153849D02*
D03*
X158850D02*
D03*
X163850D02*
D03*
X168850D02*
D03*
X173852D02*
D03*
X178850D02*
D03*
X183851D02*
D03*
X188850D02*
D03*
X193851D02*
D03*
X198850D02*
D03*
X203851D02*
D03*
X208850D02*
D03*
X213851D02*
D03*
X218850D02*
D03*
X223851D02*
D03*
X228850D02*
D03*
D28*
X86360Y18034D02*
D03*
D29*
X109474Y81026D02*
D03*
X86614D02*
D03*
X63754D02*
D03*
M02*
