G04 Layer_Color=32896*
%FSLAX44Y44*%
%MOMM*%
G71*
G01*
G75*
%ADD11C,0.2000*%
%ADD32C,0.1500*%
%ADD45C,0.1000*%
%ADD46C,0.2500*%
G36*
X263500Y304138D02*
X257049Y310089D01*
X263500Y315862D01*
Y304138D01*
D02*
G37*
D11*
X266750Y327247D02*
Y320583D01*
X265417Y319250D01*
X262751D01*
X261418Y320583D01*
Y327247D01*
X258753Y319250D02*
X256087D01*
X257420D01*
Y327247D01*
X258753Y325914D01*
X50000Y58497D02*
Y51833D01*
X48667Y50500D01*
X46001D01*
X44668Y51833D01*
Y58497D01*
X36671Y50500D02*
X42003D01*
X36671Y55832D01*
Y57165D01*
X38004Y58497D01*
X40670D01*
X42003Y57165D01*
X29500Y92000D02*
X37497D01*
Y95999D01*
X36165Y97332D01*
X33499D01*
X32166Y95999D01*
Y92000D01*
Y94666D02*
X29500Y97332D01*
Y105329D02*
Y99997D01*
X34832Y105329D01*
X36165D01*
X37497Y103996D01*
Y101330D01*
X36165Y99997D01*
X37497Y107995D02*
Y113326D01*
X36165D01*
X30833Y107995D01*
X29500D01*
X271418Y165165D02*
X272751Y166497D01*
X275417D01*
X276750Y165165D01*
Y159833D01*
X275417Y158500D01*
X272751D01*
X271418Y159833D01*
X263421Y166497D02*
X266087Y165165D01*
X268753Y162499D01*
Y159833D01*
X267420Y158500D01*
X264754D01*
X263421Y159833D01*
Y161166D01*
X264754Y162499D01*
X268753D01*
X86109Y139715D02*
X87442Y141048D01*
X90107D01*
X91440Y139715D01*
Y134384D01*
X90107Y133051D01*
X87442D01*
X86109Y134384D01*
X83443Y139715D02*
X82110Y141048D01*
X79444D01*
X78111Y139715D01*
Y138383D01*
X79444Y137050D01*
X78111Y135717D01*
Y134384D01*
X79444Y133051D01*
X82110D01*
X83443Y134384D01*
Y135717D01*
X82110Y137050D01*
X83443Y138383D01*
Y139715D01*
X82110Y137050D02*
X79444D01*
X161418Y83665D02*
X162751Y84997D01*
X165417D01*
X166750Y83665D01*
Y78333D01*
X165417Y77000D01*
X162751D01*
X161418Y78333D01*
X158753Y84997D02*
X153421D01*
Y83665D01*
X158753Y78333D01*
Y77000D01*
X227418Y353414D02*
X228751Y354747D01*
X231417D01*
X232750Y353414D01*
Y348083D01*
X231417Y346750D01*
X228751D01*
X227418Y348083D01*
X224753Y346750D02*
X222087D01*
X223420D01*
Y354747D01*
X224753Y353414D01*
X218088D02*
X216755Y354747D01*
X214089D01*
X212756Y353414D01*
Y348083D01*
X214089Y346750D01*
X216755D01*
X218088Y348083D01*
Y353414D01*
X274747Y236949D02*
X276080Y238281D01*
X278746D01*
X280079Y236949D01*
Y231617D01*
X278746Y230284D01*
X276080D01*
X274747Y231617D01*
X272081D02*
X270748Y230284D01*
X268083D01*
X266750Y231617D01*
Y236949D01*
X268083Y238281D01*
X270748D01*
X272081Y236949D01*
Y235616D01*
X270748Y234283D01*
X266750D01*
X66164Y338216D02*
X67497Y336883D01*
Y334217D01*
X66164Y332884D01*
X60833D01*
X59500Y334217D01*
Y336883D01*
X60833Y338216D01*
X67497Y346213D02*
Y340881D01*
X63499D01*
X64832Y343547D01*
Y344880D01*
X63499Y346213D01*
X60833D01*
X59500Y344880D01*
Y342214D01*
X60833Y340881D01*
X60668Y218915D02*
X62001Y220247D01*
X64667D01*
X66000Y218915D01*
Y213583D01*
X64667Y212250D01*
X62001D01*
X60668Y213583D01*
X54004Y212250D02*
Y220247D01*
X58003Y216249D01*
X52671D01*
X119918Y153414D02*
X121251Y154747D01*
X123917D01*
X125250Y153414D01*
Y148083D01*
X123917Y146750D01*
X121251D01*
X119918Y148083D01*
X117253Y153414D02*
X115920Y154747D01*
X113254D01*
X111921Y153414D01*
Y152082D01*
X113254Y150749D01*
X114587D01*
X113254D01*
X111921Y149416D01*
Y148083D01*
X113254Y146750D01*
X115920D01*
X117253Y148083D01*
X106168Y355664D02*
X107501Y356997D01*
X110167D01*
X111500Y355664D01*
Y350333D01*
X110167Y349000D01*
X107501D01*
X106168Y350333D01*
X98171Y349000D02*
X103503D01*
X98171Y354332D01*
Y355664D01*
X99504Y356997D01*
X102170D01*
X103503Y355664D01*
X62168Y270165D02*
X63501Y271497D01*
X66167D01*
X67500Y270165D01*
Y264833D01*
X66167Y263500D01*
X63501D01*
X62168Y264833D01*
X59503Y263500D02*
X56837D01*
X58170D01*
Y271497D01*
X59503Y270165D01*
X42000Y92500D02*
X49997D01*
Y96499D01*
X48664Y97832D01*
X45999D01*
X44666Y96499D01*
Y92500D01*
Y95166D02*
X42000Y97832D01*
Y105829D02*
Y100497D01*
X47332Y105829D01*
X48664D01*
X49997Y104496D01*
Y101830D01*
X48664Y100497D01*
X49997Y113826D02*
X48664Y111161D01*
X45999Y108495D01*
X43333D01*
X42000Y109828D01*
Y112494D01*
X43333Y113826D01*
X44666D01*
X45999Y112494D01*
Y108495D01*
D32*
X27940Y64262D02*
X40640D01*
X27940D02*
Y88392D01*
X40640D01*
Y64262D02*
Y88392D01*
X235712Y157480D02*
X259842D01*
Y170180D01*
X235712D02*
X259842D01*
X235712Y157480D02*
Y170180D01*
X92710Y101092D02*
Y125222D01*
X80010D02*
X92710D01*
X80010Y101092D02*
Y125222D01*
Y101092D02*
X92710D01*
X125222Y74930D02*
X149352D01*
Y87630D01*
X125222D02*
X149352D01*
X125222Y74930D02*
Y87630D01*
X184658Y356870D02*
X208788D01*
X184658Y344170D02*
Y356870D01*
Y344170D02*
X208788D01*
Y356870D01*
X262382Y243840D02*
X286512D01*
Y256540D01*
X262382D02*
X286512D01*
X262382Y243840D02*
Y256540D01*
X57150Y302768D02*
Y326898D01*
Y302768D02*
X69850D01*
Y326898D01*
X57150D02*
X69850D01*
X51308Y236220D02*
X75438D01*
X51308Y223520D02*
Y236220D01*
Y223520D02*
X75438D01*
Y236220D01*
X125100Y120062D02*
Y144192D01*
X112400D02*
X125100D01*
X112400Y120062D02*
Y144192D01*
Y120062D02*
X125100D01*
X114808Y356870D02*
X138938D01*
X114808Y344170D02*
Y356870D01*
Y344170D02*
X138938D01*
Y356870D01*
X51308Y256540D02*
X75438D01*
X51308Y243840D02*
Y256540D01*
Y243840D02*
X75438D01*
Y256540D01*
X40640Y64262D02*
X53340D01*
X40640D02*
Y88392D01*
X53340D01*
Y64262D02*
Y88392D01*
D45*
X218800Y295200D02*
G03*
X218800Y295200I-0J5000D01*
G01*
X103800Y185200D02*
Y315200D01*
Y185200D02*
X233800D01*
Y315200D01*
X103800D02*
X233800D01*
X98800Y320200D02*
X238800D01*
Y180200D02*
Y320200D01*
X98800Y180200D02*
X238800D01*
X98800D02*
Y320200D01*
X88800Y330200D02*
X106300D01*
X88800Y312700D02*
Y330200D01*
Y170200D02*
X106050D01*
X88800D02*
Y187200D01*
X231800Y170200D02*
X248800D01*
Y187450D01*
Y312950D02*
Y330200D01*
X231550D02*
X248800D01*
D46*
X117600Y32512D02*
Y64772D01*
X55120Y32512D02*
Y65024D01*
Y32512D02*
X117600D01*
X55372Y65024D02*
X117348D01*
X117600Y64772D01*
M02*
