%FSLAX44Y44*%
%MOMM*%
G71*
G01*
G75*
G04 Layer_Physical_Order=4*
G04 Layer_Color=16711680*
%ADD10R,0.8000X0.6000*%
%ADD11C,0.2000*%
G04:AMPARAMS|DCode=12|XSize=1.4mm|YSize=1.4mm|CornerRadius=0mm|HoleSize=0mm|Usage=FLASHONLY|Rotation=270.000|XOffset=0mm|YOffset=0mm|HoleType=Round|Shape=Octagon|*
%AMOCTAGOND12*
4,1,8,-0.3500,-0.7000,0.3500,-0.7000,0.7000,-0.3500,0.7000,0.3500,0.3500,0.7000,-0.3500,0.7000,-0.7000,0.3500,-0.7000,-0.3500,-0.3500,-0.7000,0.0*
%
%ADD12OCTAGOND12*%

G04:AMPARAMS|DCode=13|XSize=1.4mm|YSize=1.4mm|CornerRadius=0mm|HoleSize=0mm|Usage=FLASHONLY|Rotation=0.000|XOffset=0mm|YOffset=0mm|HoleType=Round|Shape=Octagon|*
%AMOCTAGOND13*
4,1,8,0.7000,-0.3500,0.7000,0.3500,0.3500,0.7000,-0.3500,0.7000,-0.7000,0.3500,-0.7000,-0.3500,-0.3500,-0.7000,0.3500,-0.7000,0.7000,-0.3500,0.0*
%
%ADD13OCTAGOND13*%

%ADD14C,1.4000*%
G04:AMPARAMS|DCode=15|XSize=1.6002mm|YSize=1.6002mm|CornerRadius=0mm|HoleSize=0mm|Usage=FLASHONLY|Rotation=270.000|XOffset=0mm|YOffset=0mm|HoleType=Round|Shape=Octagon|*
%AMOCTAGOND15*
4,1,8,-0.4001,-0.8001,0.4001,-0.8001,0.8001,-0.4001,0.8001,0.4001,0.4001,0.8001,-0.4001,0.8001,-0.8001,0.4001,-0.8001,-0.4001,-0.4001,-0.8001,0.0*
%
%ADD15OCTAGOND15*%

%ADD16C,1.0000*%
G04:AMPARAMS|DCode=17|XSize=1.6002mm|YSize=1.6002mm|CornerRadius=0mm|HoleSize=0mm|Usage=FLASHONLY|Rotation=180.000|XOffset=0mm|YOffset=0mm|HoleType=Round|Shape=Octagon|*
%AMOCTAGOND17*
4,1,8,-0.8001,0.4001,-0.8001,-0.4001,-0.4001,-0.8001,0.4001,-0.8001,0.8001,-0.4001,0.8001,0.4001,0.4001,0.8001,-0.4001,0.8001,-0.8001,0.4001,0.0*
%
%ADD17OCTAGOND17*%

%ADD18C,1.6002*%
%ADD19C,0.5000*%
%ADD20C,1.0160*%
%ADD21C,2.0160*%
%ADD22C,1.9304*%
G04:AMPARAMS|DCode=23|XSize=2.4384mm|YSize=2.4384mm|CornerRadius=0mm|HoleSize=0mm|Usage=FLASHONLY|Rotation=0.000|XOffset=0mm|YOffset=0mm|HoleType=Round|Shape=Relief|Width=0.254mm|Gap=0.254mm|Entries=4|*
%AMTHD23*
7,0,0,2.4384,1.9304,0.2540,45*
%
%ADD23THD23*%
G04:AMPARAMS|DCode=24|XSize=2.524mm|YSize=2.524mm|CornerRadius=0mm|HoleSize=0mm|Usage=FLASHONLY|Rotation=0.000|XOffset=0mm|YOffset=0mm|HoleType=Round|Shape=Relief|Width=0.254mm|Gap=0.254mm|Entries=4|*
%AMTHD24*
7,0,0,2.5240,2.0160,0.2540,45*
%
%ADD24THD24*%
%ADD25C,3.0160*%
%ADD26C,1.9160*%
G04:AMPARAMS|DCode=27|XSize=2.424mm|YSize=2.424mm|CornerRadius=0mm|HoleSize=0mm|Usage=FLASHONLY|Rotation=0.000|XOffset=0mm|YOffset=0mm|HoleType=Round|Shape=Relief|Width=0.254mm|Gap=0.254mm|Entries=4|*
%AMTHD27*
7,0,0,2.4240,1.9160,0.2540,45*
%
%ADD27THD27*%
G04:AMPARAMS|DCode=28|XSize=1.724mm|YSize=1.724mm|CornerRadius=0mm|HoleSize=0mm|Usage=FLASHONLY|Rotation=0.000|XOffset=0mm|YOffset=0mm|HoleType=Round|Shape=Relief|Width=0.254mm|Gap=0.254mm|Entries=4|*
%AMTHD28*
7,0,0,1.7240,1.2160,0.2540,45*
%
%ADD28THD28*%
%ADD29C,1.2160*%
%ADD30R,0.6000X0.8000*%
%ADD31R,1.1998X0.2498*%
%ADD32R,0.2498X1.1998*%
%ADD33R,3.8100X2.0066*%
%ADD34R,1.4986X2.0066*%
D10*
X34290Y69596D02*
D03*
Y83058D02*
D03*
X46990Y69596D02*
D03*
Y83058D02*
D03*
X86360Y119888D02*
D03*
Y106426D02*
D03*
X63500Y308102D02*
D03*
Y321564D02*
D03*
X133350Y137922D02*
D03*
Y151384D02*
D03*
D11*
X211159Y157353D02*
X215959Y152553D01*
X199059Y157353D02*
X211159D01*
X163830Y153670D02*
Y170180D01*
X163849Y170199D01*
X248851Y205199D02*
X265958D01*
Y192553D02*
Y205199D01*
X214630Y401320D02*
X225659D01*
Y362053D02*
Y401320D01*
Y362053D02*
X305958D01*
Y162553D02*
Y362053D01*
X248851Y188953D02*
Y190200D01*
Y188953D02*
X254858D01*
Y174853D02*
Y188953D01*
Y174853D02*
X279458D01*
Y142553D02*
Y174853D01*
Y142553D02*
X305958D01*
X138430Y401320D02*
X149459D01*
Y358053D02*
Y401320D01*
Y358053D02*
X233158D01*
Y318053D02*
Y358053D01*
X209659Y318053D02*
X233158D01*
X209659Y304253D02*
Y318053D01*
X190559Y304253D02*
X209659D01*
X190559Y292053D02*
Y304253D01*
X140459Y292053D02*
X190559D01*
X140459Y237053D02*
Y292053D01*
Y237053D02*
X165959D01*
Y262553D01*
X248851Y200200D02*
X258859D01*
Y182553D02*
Y200200D01*
Y182553D02*
X265958D01*
X63754Y81026D02*
Y94065D01*
X46990D02*
X63754D01*
X46990Y83058D02*
Y94065D01*
X34290Y83058D02*
Y94065D01*
X46990D01*
X178850Y170199D02*
Y182553D01*
X175959D02*
X178850D01*
X163849Y300120D02*
Y330201D01*
X125959Y300120D02*
X163849D01*
X125959Y242553D02*
Y300120D01*
X168850Y170199D02*
Y192553D01*
X175959D01*
X158850Y304153D02*
Y330201D01*
X120459Y304153D02*
X158850D01*
X120459Y232553D02*
Y304153D01*
Y232553D02*
X125959D01*
X168659Y330201D02*
X168850D01*
X168659D02*
Y342553D01*
X165959D02*
X168659D01*
X248851Y264953D02*
Y265201D01*
X235958Y264953D02*
X248851D01*
X235958Y262553D02*
Y264953D01*
X248851Y260200D02*
Y260353D01*
X260459D01*
Y262553D01*
X265958D01*
X193851Y330201D02*
X194059D01*
Y318053D02*
Y330201D01*
Y318053D02*
X195959D01*
Y312553D02*
Y318053D01*
X123659Y330201D02*
X123849D01*
X123659D02*
Y342553D01*
X105959D02*
X123659D01*
X198850Y170199D02*
X199059D01*
Y157353D02*
Y170199D01*
X128850D02*
Y202553D01*
X135959D01*
X88849Y260200D02*
Y260353D01*
X75959D02*
X88849D01*
X75959D02*
Y292553D01*
X173851Y170199D02*
X174059D01*
Y157353D02*
Y170199D01*
Y157353D02*
X186559D01*
Y138053D02*
Y157353D01*
X185959Y138053D02*
X186559D01*
X185959Y132553D02*
Y138053D01*
X254508Y162553D02*
Y163830D01*
Y162553D02*
X265958D01*
X56642Y250190D02*
Y252553D01*
X45959D02*
X56642D01*
X85959Y119888D02*
X86360D01*
X85959D02*
Y132553D01*
X144018Y81280D02*
Y82553D01*
X155959D01*
X56642Y229870D02*
Y232553D01*
X45959D02*
X56642D01*
X31359Y69596D02*
X34290D01*
X31359Y62553D02*
Y69596D01*
X25959Y62553D02*
X31359D01*
X189992Y350520D02*
Y352553D01*
X175959D02*
X189992D01*
X120142Y350520D02*
Y352553D01*
X105959D02*
X120142D01*
X281178Y250190D02*
Y252553D01*
X295958D01*
X63500Y308102D02*
X65959D01*
Y292553D02*
Y308102D01*
X133350Y122553D02*
Y137922D01*
X115959Y122553D02*
X133350D01*
X232859Y195199D02*
X248851D01*
X232859D02*
Y222053D01*
X221459D02*
X232859D01*
X221459D02*
Y258053D01*
X193459D02*
X221459D01*
X193459Y233053D02*
Y258053D01*
X136459Y233053D02*
X193459D01*
X136459D02*
Y296053D01*
X185959D01*
Y312553D01*
X110451Y142553D02*
X115959D01*
X110451Y111916D02*
Y142553D01*
Y111916D02*
X191469D01*
Y132553D01*
X215959D01*
X88849Y205199D02*
X97857D01*
Y197052D02*
Y205199D01*
Y197052D02*
X115959D01*
Y202553D01*
X55959Y200200D02*
X88849D01*
X55959D02*
Y212553D01*
X45959Y195199D02*
X88849D01*
X45959Y122553D02*
Y195199D01*
X35959Y122553D02*
X45959D01*
X252730Y147320D02*
X262759D01*
Y99853D02*
Y147320D01*
X97459Y99853D02*
X262759D01*
X97459D02*
Y172553D01*
X75959D02*
X97459D01*
X55959Y190200D02*
X88849D01*
X55959Y172553D02*
Y190200D01*
X108850Y160053D02*
Y170199D01*
X102359Y160053D02*
X108850D01*
X102359Y103880D02*
Y160053D01*
Y103880D02*
X252730D01*
Y121920D01*
X113849Y170199D02*
Y182553D01*
X115959D01*
X118850Y152053D02*
Y170199D01*
X106433Y152053D02*
X118850D01*
X106433Y107898D02*
Y152053D01*
Y107898D02*
X201930D01*
Y121920D01*
X123849Y170199D02*
Y188053D01*
X97859D02*
X123849D01*
X97859Y182053D02*
Y188053D01*
X65459Y182053D02*
X97859D01*
X65459Y163953D02*
Y182053D01*
X50959Y163953D02*
X65459D01*
X50959Y108053D02*
Y163953D01*
Y108053D02*
X71459D01*
Y98153D02*
Y108053D01*
Y98153D02*
X74259D01*
Y57053D02*
Y98153D01*
Y57053D02*
X128559D01*
Y72553D01*
X215959D01*
X138850Y157453D02*
Y170199D01*
X122859Y157453D02*
X138850D01*
X122859Y132553D02*
Y157453D01*
X115959Y132553D02*
X122859D01*
X143849Y170199D02*
Y192553D01*
X135959D02*
X143849D01*
X148850Y170199D02*
Y197053D01*
X145959D02*
X148850D01*
X145959D02*
Y202553D01*
X242570Y58420D02*
Y82553D01*
X185959D02*
X242570D01*
X153849Y170199D02*
Y187053D01*
X155959D01*
Y192553D01*
X242570Y33020D02*
Y43053D01*
X111459D02*
X242570D01*
X111459Y42553D02*
Y43053D01*
X105959Y42553D02*
X111459D01*
X158850Y170199D02*
Y183253D01*
X161459D01*
Y208053D01*
X105959D02*
X161459D01*
X105959Y202553D02*
Y208053D01*
X217170Y22553D02*
Y33020D01*
Y22553D02*
X275958D01*
X183851Y170199D02*
Y212553D01*
X195959D01*
X191770Y13053D02*
Y33020D01*
Y13053D02*
X281458D01*
Y32553D01*
X265958D02*
X281458D01*
X188850Y170199D02*
Y202553D01*
X195959D01*
X193851Y170199D02*
Y182553D01*
X195959D01*
X208850Y170199D02*
Y222053D01*
X115959D02*
X208850D01*
X115959D02*
Y312553D01*
X213851Y170199D02*
Y247053D01*
X215959D01*
Y252553D01*
X275958Y232553D02*
X295958D01*
X218850Y161153D02*
Y170199D01*
Y161153D02*
X233158D01*
Y177053D01*
X235958D01*
Y182553D01*
X223851Y170199D02*
Y187253D01*
X220459D02*
X223851D01*
X220459D02*
Y212553D01*
X225959D01*
X228850Y170199D02*
Y197053D01*
X225959D02*
X228850D01*
X225959D02*
Y202553D01*
X248851Y210200D02*
X275958D01*
Y192553D02*
Y210200D01*
X248851Y215199D02*
X287558D01*
Y152400D02*
Y215199D01*
Y152400D02*
X317500D01*
X248851Y220200D02*
X295958D01*
Y162553D02*
Y220200D01*
X304558Y101600D02*
X317500D01*
X304558Y95853D02*
Y101600D01*
X93459Y95853D02*
X304558D01*
X93459D02*
Y142553D01*
X85959D02*
X93459D01*
X225492Y230200D02*
X248851D01*
X225492D02*
Y262079D01*
X175959D02*
X225492D01*
X175959Y242553D02*
Y262079D01*
X12700Y101600D02*
Y102553D01*
X65959D01*
X229559Y240200D02*
X248851D01*
X229559D02*
Y266153D01*
X187459D02*
X229559D01*
X187459D02*
Y268053D01*
X155959D02*
X187459D01*
X155959Y242553D02*
Y268053D01*
X205959Y276153D02*
Y282553D01*
X145959Y276153D02*
X205959D01*
X145959Y262553D02*
Y276153D01*
X248851Y255201D02*
X257859D01*
Y227053D02*
Y255201D01*
Y227053D02*
X301458D01*
Y312553D01*
X285958D02*
X301458D01*
X12700Y152400D02*
X37959D01*
Y274053D01*
X45959D01*
Y322553D01*
X248851Y275201D02*
X279258D01*
Y267053D02*
Y275201D01*
Y267053D02*
X291458D01*
Y302553D01*
X275958D02*
X291458D01*
X248851Y280200D02*
X285958D01*
Y272553D02*
Y280200D01*
X281464Y76200D02*
X317500D01*
X12700Y49153D02*
Y76200D01*
Y49153D02*
X102259D01*
Y48353D02*
Y49153D01*
Y48353D02*
X281464D01*
Y76200D01*
X120059Y81280D02*
X130556D01*
X120059Y81026D02*
Y81280D01*
X109474Y81026D02*
X120059D01*
X281464Y76200D02*
Y88353D01*
X109474D02*
X281464D01*
X109474Y81026D02*
Y88353D01*
X12700Y203200D02*
X33959D01*
Y287053D01*
X35959D01*
Y292553D01*
X248851Y285201D02*
X275958D01*
Y292553D01*
X12700Y228600D02*
X25959D01*
Y302553D01*
X248851Y290200D02*
X265958D01*
Y302553D01*
X133849Y170199D02*
Y182553D01*
X135959D01*
X178850Y330201D02*
Y342553D01*
X175959D02*
X178850D01*
X198850Y330201D02*
Y342553D01*
X195959D02*
X198850D01*
X235958Y250200D02*
X248851D01*
X235958D02*
Y252553D01*
Y270200D02*
X248851D01*
X235958D02*
Y272553D01*
X128850Y318053D02*
Y330201D01*
X125959Y318053D02*
X128850D01*
X125959Y312553D02*
Y318053D01*
X88849Y230200D02*
X105959D01*
Y222553D02*
Y230200D01*
X88849Y250200D02*
X105959D01*
Y242553D02*
Y250200D01*
X203851Y170199D02*
Y192553D01*
X195959D02*
X203851D01*
X86614Y62553D02*
Y81026D01*
Y62553D02*
X95959D01*
X63500Y321564D02*
X65959D01*
Y332553D01*
X70104Y250190D02*
X76159D01*
Y242553D02*
Y250190D01*
X75959Y242553D02*
X76159D01*
X133604Y350520D02*
Y352553D01*
X145959D01*
X203454Y350520D02*
Y352553D01*
X215959D01*
X267716Y250190D02*
X273759D01*
Y242053D02*
Y250190D01*
X265958Y242053D02*
X273759D01*
X265958Y232553D02*
Y242053D01*
X70104Y229870D02*
X76159D01*
Y218053D02*
Y229870D01*
X75959Y218053D02*
X76159D01*
X75959Y212553D02*
Y218053D01*
X241046Y163830D02*
X247059D01*
Y177053D01*
X245958D02*
X247059D01*
X245958D02*
Y182553D01*
X75959Y106426D02*
X86360D01*
X75959D02*
Y122553D01*
X46990Y69596D02*
Y75653D01*
X25959D02*
X46990D01*
X25959D02*
Y92553D01*
X133350Y151384D02*
X140359D01*
Y132553D02*
Y151384D01*
Y132553D02*
X165959D01*
X215959Y295201D02*
X248851D01*
X215959Y272553D02*
Y295201D01*
X195959Y300200D02*
X248851D01*
X195959Y282553D02*
Y300200D01*
X215959Y305201D02*
X248851D01*
X215959D02*
Y312553D01*
D12*
X60960Y124460D02*
D03*
Y149860D02*
D03*
D13*
X242570Y58420D02*
D03*
Y33020D02*
D03*
X217170Y58420D02*
D03*
Y33020D02*
D03*
X191770Y58420D02*
D03*
Y33020D02*
D03*
X166370Y58420D02*
D03*
Y33020D02*
D03*
X140970Y58420D02*
D03*
X252730Y147320D02*
D03*
Y121920D02*
D03*
X227330Y147320D02*
D03*
Y121920D02*
D03*
X201930Y147320D02*
D03*
Y121920D02*
D03*
X176530Y147320D02*
D03*
Y121920D02*
D03*
X151130Y147320D02*
D03*
D14*
X140970Y33020D02*
D03*
X151130Y121920D02*
D03*
D15*
X317500Y76200D02*
D03*
Y101600D02*
D03*
Y127000D02*
D03*
Y152400D02*
D03*
Y177800D02*
D03*
Y203200D02*
D03*
Y228600D02*
D03*
Y254000D02*
D03*
Y279400D02*
D03*
Y304800D02*
D03*
Y330200D02*
D03*
Y355600D02*
D03*
X12700Y76200D02*
D03*
Y101600D02*
D03*
Y127000D02*
D03*
Y152400D02*
D03*
Y177800D02*
D03*
Y203200D02*
D03*
Y228600D02*
D03*
Y254000D02*
D03*
Y279400D02*
D03*
Y304800D02*
D03*
Y330200D02*
D03*
Y355600D02*
D03*
D16*
X311150Y406400D02*
D03*
X19050D02*
D03*
X310896Y25400D02*
D03*
X19050D02*
D03*
D17*
X138430Y375920D02*
D03*
Y401320D02*
D03*
X163830Y375920D02*
D03*
Y401320D02*
D03*
X189230Y375920D02*
D03*
Y401320D02*
D03*
X214630Y375920D02*
D03*
Y401320D02*
D03*
X240030Y375920D02*
D03*
D18*
Y401320D02*
D03*
D19*
X163830Y153670D02*
D03*
X265958Y192553D02*
D03*
X305958Y162553D02*
D03*
Y142553D02*
D03*
X165959Y262553D02*
D03*
X265958Y182553D02*
D03*
X175959D02*
D03*
X125959Y242553D02*
D03*
X175959Y192553D02*
D03*
X125959Y232553D02*
D03*
X165959Y342553D02*
D03*
X235958Y262553D02*
D03*
X265958D02*
D03*
X195959Y312553D02*
D03*
X105959Y342553D02*
D03*
X215959Y152553D02*
D03*
X135959Y202553D02*
D03*
X75959Y292553D02*
D03*
X185959Y132553D02*
D03*
X265958Y162553D02*
D03*
X45959Y252553D02*
D03*
X85959Y132553D02*
D03*
X155959Y82553D02*
D03*
X45959Y232553D02*
D03*
X55959Y32553D02*
D03*
X25959Y62553D02*
D03*
X175959Y352553D02*
D03*
X105959D02*
D03*
X295958Y252553D02*
D03*
X45959Y32553D02*
D03*
X65959Y292553D02*
D03*
X115959Y122553D02*
D03*
X55959Y12553D02*
D03*
X115959Y22553D02*
D03*
X185959Y312553D02*
D03*
X215959Y132553D02*
D03*
X115959Y142553D02*
D03*
Y202553D02*
D03*
X55959Y212553D02*
D03*
X35959Y122553D02*
D03*
X75959Y172553D02*
D03*
X55959D02*
D03*
X115959Y182553D02*
D03*
X215959Y72553D02*
D03*
X115959Y132553D02*
D03*
X135959Y192553D02*
D03*
X145959Y202553D02*
D03*
X185959Y82553D02*
D03*
X155959Y192553D02*
D03*
X105959Y42553D02*
D03*
Y202553D02*
D03*
X275958Y22553D02*
D03*
X195959Y212553D02*
D03*
X265958Y32553D02*
D03*
X195959Y202553D02*
D03*
Y182553D02*
D03*
X115959Y312553D02*
D03*
X215959Y252553D02*
D03*
X295958Y232553D02*
D03*
X275958D02*
D03*
X235958Y182553D02*
D03*
X225959Y212553D02*
D03*
Y202553D02*
D03*
X275958Y192553D02*
D03*
X295958Y162553D02*
D03*
X85959Y142553D02*
D03*
X175959Y242553D02*
D03*
X65959Y102553D02*
D03*
X155959Y242553D02*
D03*
X145959Y262553D02*
D03*
X205959Y282553D02*
D03*
X285958Y312553D02*
D03*
X45959Y322553D02*
D03*
X275958Y302553D02*
D03*
X285958Y272553D02*
D03*
X35959Y292553D02*
D03*
X275958D02*
D03*
X25959Y302553D02*
D03*
X265958D02*
D03*
X135959Y182553D02*
D03*
X175959Y342553D02*
D03*
X195959D02*
D03*
X235958Y252553D02*
D03*
Y272553D02*
D03*
X125959Y312553D02*
D03*
X105959Y222553D02*
D03*
Y242553D02*
D03*
X195959Y192553D02*
D03*
X95959Y62553D02*
D03*
X65959Y332553D02*
D03*
X75959Y242553D02*
D03*
X145959Y352553D02*
D03*
X215959D02*
D03*
X265958Y232553D02*
D03*
X75959Y212553D02*
D03*
X245958Y182553D02*
D03*
X75959Y122553D02*
D03*
X25959Y92553D02*
D03*
X165959Y132553D02*
D03*
X215959Y272553D02*
D03*
X195959Y282553D02*
D03*
X215959Y312553D02*
D03*
D30*
X144018Y81280D02*
D03*
X130556D02*
D03*
X189992Y350520D02*
D03*
X203454D02*
D03*
X281178Y250190D02*
D03*
X267716D02*
D03*
X254508Y163830D02*
D03*
X241046D02*
D03*
X56642Y229870D02*
D03*
X70104D02*
D03*
X120142Y350520D02*
D03*
X133604D02*
D03*
X56642Y250190D02*
D03*
X70104D02*
D03*
D31*
X248851Y310200D02*
D03*
Y305201D02*
D03*
Y300200D02*
D03*
Y295201D02*
D03*
Y290200D02*
D03*
Y285201D02*
D03*
Y280200D02*
D03*
Y275201D02*
D03*
Y270200D02*
D03*
Y265201D02*
D03*
Y260200D02*
D03*
Y255201D02*
D03*
Y250200D02*
D03*
Y245199D02*
D03*
Y240200D02*
D03*
Y235199D02*
D03*
Y230200D02*
D03*
Y225199D02*
D03*
Y220200D02*
D03*
Y215199D02*
D03*
Y210200D02*
D03*
Y205199D02*
D03*
Y200200D02*
D03*
Y195199D02*
D03*
Y190200D02*
D03*
X88849D02*
D03*
Y195199D02*
D03*
Y200200D02*
D03*
Y205199D02*
D03*
Y210200D02*
D03*
Y215199D02*
D03*
Y220200D02*
D03*
Y225199D02*
D03*
Y230200D02*
D03*
Y235199D02*
D03*
Y240200D02*
D03*
Y245199D02*
D03*
Y250200D02*
D03*
Y255201D02*
D03*
Y260200D02*
D03*
Y265201D02*
D03*
Y270200D02*
D03*
Y275201D02*
D03*
Y280200D02*
D03*
Y285201D02*
D03*
Y290200D02*
D03*
Y295201D02*
D03*
Y300200D02*
D03*
Y305201D02*
D03*
Y310200D02*
D03*
D32*
X228850Y170199D02*
D03*
X223851D02*
D03*
X218850D02*
D03*
X213851D02*
D03*
X208850D02*
D03*
X203851D02*
D03*
X198850D02*
D03*
X193851D02*
D03*
X188850D02*
D03*
X183851D02*
D03*
X178850D02*
D03*
X173851D02*
D03*
X168850D02*
D03*
X163849D02*
D03*
X158850D02*
D03*
X153849D02*
D03*
X148850D02*
D03*
X143849D02*
D03*
X138850D02*
D03*
X133849D02*
D03*
X128850D02*
D03*
X123849D02*
D03*
X118850D02*
D03*
X113849D02*
D03*
X108850D02*
D03*
Y330201D02*
D03*
X113849D02*
D03*
X118850D02*
D03*
X123849D02*
D03*
X128850D02*
D03*
X133849D02*
D03*
X138850D02*
D03*
X143849D02*
D03*
X148850D02*
D03*
X153849D02*
D03*
X158850D02*
D03*
X163849D02*
D03*
X168850D02*
D03*
X173851D02*
D03*
X178850D02*
D03*
X183851D02*
D03*
X188850D02*
D03*
X193851D02*
D03*
X198850D02*
D03*
X203851D02*
D03*
X208850D02*
D03*
X213851D02*
D03*
X218850D02*
D03*
X223851D02*
D03*
X228850D02*
D03*
D33*
X86360Y18034D02*
D03*
D34*
X109474Y81026D02*
D03*
X86614D02*
D03*
X63754D02*
D03*
M02*
