%FSLAX44Y44*%
%MOMM*%
G71*
G01*
G75*
G04 Layer_Physical_Order=1*
G04 Layer_Color=255*
%ADD10R,0.8000X0.6000*%
%ADD11C,0.2000*%
G04:AMPARAMS|DCode=12|XSize=1.4mm|YSize=1.4mm|CornerRadius=0mm|HoleSize=0mm|Usage=FLASHONLY|Rotation=270.000|XOffset=0mm|YOffset=0mm|HoleType=Round|Shape=Octagon|*
%AMOCTAGOND12*
4,1,8,-0.3500,-0.7000,0.3500,-0.7000,0.7000,-0.3500,0.7000,0.3500,0.3500,0.7000,-0.3500,0.7000,-0.7000,0.3500,-0.7000,-0.3500,-0.3500,-0.7000,0.0*
%
%ADD12OCTAGOND12*%

G04:AMPARAMS|DCode=13|XSize=1.4mm|YSize=1.4mm|CornerRadius=0mm|HoleSize=0mm|Usage=FLASHONLY|Rotation=0.000|XOffset=0mm|YOffset=0mm|HoleType=Round|Shape=Octagon|*
%AMOCTAGOND13*
4,1,8,0.7000,-0.3500,0.7000,0.3500,0.3500,0.7000,-0.3500,0.7000,-0.7000,0.3500,-0.7000,-0.3500,-0.3500,-0.7000,0.3500,-0.7000,0.7000,-0.3500,0.0*
%
%ADD13OCTAGOND13*%

%ADD14C,1.4000*%
G04:AMPARAMS|DCode=15|XSize=1.6002mm|YSize=1.6002mm|CornerRadius=0mm|HoleSize=0mm|Usage=FLASHONLY|Rotation=270.000|XOffset=0mm|YOffset=0mm|HoleType=Round|Shape=Octagon|*
%AMOCTAGOND15*
4,1,8,-0.4001,-0.8001,0.4001,-0.8001,0.8001,-0.4001,0.8001,0.4001,0.4001,0.8001,-0.4001,0.8001,-0.8001,0.4001,-0.8001,-0.4001,-0.4001,-0.8001,0.0*
%
%ADD15OCTAGOND15*%

%ADD16C,1.0000*%
G04:AMPARAMS|DCode=17|XSize=1.6002mm|YSize=1.6002mm|CornerRadius=0mm|HoleSize=0mm|Usage=FLASHONLY|Rotation=180.000|XOffset=0mm|YOffset=0mm|HoleType=Round|Shape=Octagon|*
%AMOCTAGOND17*
4,1,8,-0.8001,0.4001,-0.8001,-0.4001,-0.4001,-0.8001,0.4001,-0.8001,0.8001,-0.4001,0.8001,0.4001,0.4001,0.8001,-0.4001,0.8001,-0.8001,0.4001,0.0*
%
%ADD17OCTAGOND17*%

%ADD18C,1.6002*%
%ADD19C,0.5000*%
D10*
X41910Y59944D02*
D03*
Y46482D02*
D03*
X54610Y59944D02*
D03*
Y46482D02*
D03*
X80010Y59944D02*
D03*
Y46482D02*
D03*
X67310Y59944D02*
D03*
Y46482D02*
D03*
X41910Y84074D02*
D03*
Y70612D02*
D03*
X54610Y84074D02*
D03*
Y70612D02*
D03*
X80010Y84074D02*
D03*
Y70612D02*
D03*
X67310Y84074D02*
D03*
Y70612D02*
D03*
D11*
X189230Y401320D02*
Y412331D01*
X263058D01*
Y358753D02*
Y412331D01*
Y358753D02*
X295558D01*
Y265053D02*
Y358753D01*
X289958Y265053D02*
X295558D01*
X289958Y222253D02*
Y265053D01*
X220459Y222253D02*
X289958D01*
X220459Y192553D02*
Y222253D01*
Y192553D02*
X265958D01*
X305958Y142553D02*
Y162553D01*
X265958Y177053D02*
Y182553D01*
X209559Y177053D02*
X265958D01*
X209559D02*
Y230053D01*
X195559D02*
X209559D01*
X195559D02*
Y262553D01*
X165959D02*
X195559D01*
X41910Y59944D02*
Y70612D01*
X54610Y59944D02*
Y70612D01*
X80010Y59944D02*
Y70612D01*
X67310Y59944D02*
Y70612D01*
X41910Y84074D02*
Y194153D01*
X65459D01*
Y252084D01*
X181459D01*
Y182553D02*
Y252084D01*
X175959Y182553D02*
X181459D01*
X49659Y84074D02*
X54610D01*
X49659D02*
Y87153D01*
X48959D02*
X49659D01*
X48959D02*
Y90090D01*
X46859D02*
X48959D01*
X46859D02*
Y186053D01*
X81459D01*
Y248053D01*
X125959D01*
Y242553D02*
Y248053D01*
X80010Y84074D02*
X97559D01*
Y208053D01*
X175959D01*
Y192553D02*
Y208053D01*
X67310Y84074D02*
Y94153D01*
X50959D02*
X67310D01*
X50959D02*
Y163953D01*
X85459D01*
Y232553D01*
X125959D01*
X54610Y46482D02*
X55959D01*
Y32553D02*
Y46482D01*
X41910Y38053D02*
Y46482D01*
Y38053D02*
X45959D01*
Y32553D02*
Y38053D01*
X67310Y12553D02*
Y46482D01*
X55959Y12553D02*
X67310D01*
X80010Y22553D02*
Y46482D01*
Y22553D02*
X115959D01*
X225659Y401320D02*
X240030D01*
X225659Y362753D02*
Y401320D01*
X185959Y362753D02*
X225659D01*
X185959Y312553D02*
Y362753D01*
X176530Y141321D02*
Y147320D01*
Y141321D02*
X191469D01*
Y132553D02*
Y141321D01*
Y132553D02*
X215959D01*
X115959Y202553D02*
X121465D01*
Y142553D02*
Y202553D01*
X115959Y142553D02*
X121465D01*
X187559Y147320D02*
X201930D01*
X187559D02*
Y256153D01*
X55959D02*
X187559D01*
X55959Y212553D02*
Y256153D01*
X227330Y147320D02*
X237358D01*
Y100453D02*
Y147320D01*
X231259Y100453D02*
X237358D01*
X231259Y43053D02*
Y100453D01*
X122459Y43053D02*
X231259D01*
X122459Y37053D02*
Y43053D01*
X95059Y37053D02*
X122459D01*
X95059D02*
Y52553D01*
X34859D02*
X95059D01*
X34859D02*
Y117053D01*
X35959D01*
Y122553D01*
X55959Y172553D02*
X75959D01*
X227258Y121920D02*
X227330D01*
X227258Y48353D02*
Y121920D01*
X110459Y48353D02*
X227258D01*
X110459D02*
Y182553D01*
X115959D01*
X176530Y104053D02*
Y121920D01*
Y104053D02*
X215959D01*
Y72553D02*
Y104053D01*
X166370Y58420D02*
Y68453D01*
X125459D02*
X166370D01*
X125459D02*
Y132553D01*
X115959D02*
X125459D01*
X191770Y58420D02*
Y72453D01*
X130459D02*
X191770D01*
X130459D02*
Y192553D01*
X135959D01*
X205859Y58420D02*
X217170D01*
X205859D02*
Y76453D01*
X137059D02*
X205859D01*
X137059D02*
Y169353D01*
X145959D01*
Y202553D01*
X155959Y161353D02*
Y192553D01*
X141114Y161353D02*
X155959D01*
X141114Y96053D02*
Y161353D01*
Y96053D02*
X185959D01*
Y82553D02*
Y96053D01*
X105959Y42553D02*
Y202553D01*
X195959Y212553D02*
X205459D01*
Y172053D02*
Y212553D01*
Y172053D02*
X275958D01*
Y22553D02*
Y172053D01*
X195959Y202553D02*
X201459D01*
Y168053D02*
Y202553D01*
Y168053D02*
X271458D01*
Y32553D02*
Y168053D01*
X265958Y32553D02*
X271458D01*
X166370Y22953D02*
Y33020D01*
Y22953D02*
X252659D01*
Y88453D01*
X241359D02*
X252659D01*
X241359D02*
Y162053D01*
X195959D02*
X241359D01*
X195959D02*
Y182553D01*
X305458Y304800D02*
X317500D01*
X305458D02*
Y378753D01*
X283058D02*
X305458D01*
X283058D02*
Y420352D01*
X115959D02*
X283058D01*
X115959Y312553D02*
Y420352D01*
X301458Y279400D02*
X317500D01*
X301458D02*
Y366753D01*
X275058D02*
X301458D01*
X275058D02*
Y416353D01*
X152759D02*
X275058D01*
X152759Y307053D02*
Y416353D01*
Y307053D02*
X205459D01*
Y326053D01*
X291458D01*
Y278053D02*
Y326053D01*
X225459Y278053D02*
X291458D01*
X225459Y252553D02*
Y278053D01*
X215959Y252553D02*
X225459D01*
X317500Y239653D02*
Y254000D01*
X295958Y239653D02*
X317500D01*
X295958Y232553D02*
Y239653D01*
X216359Y182553D02*
X235958D01*
X216359D02*
Y226253D01*
X275958D01*
Y232553D01*
X317500Y214253D02*
Y228600D01*
X231458Y214253D02*
X317500D01*
X231458Y212553D02*
Y214253D01*
X225959Y212553D02*
X231458D01*
X317500Y202553D02*
Y203200D01*
X225959Y202553D02*
X317500D01*
X275958Y177800D02*
X317500D01*
X275958D02*
Y192553D01*
X295958Y127000D02*
X317500D01*
X295958D02*
Y162553D01*
X175959Y242553D02*
Y248053D01*
X139459D02*
X175959D01*
X139459Y216153D02*
Y248053D01*
X89502Y216153D02*
X139459D01*
X89502Y148053D02*
Y216153D01*
X85959Y148053D02*
X89502D01*
X85959Y142553D02*
Y148053D01*
X155959Y212053D02*
Y242553D01*
X93559Y212053D02*
X155959D01*
X93559Y102553D02*
Y212053D01*
X65959Y102553D02*
X93559D01*
X12700Y127000D02*
Y138053D01*
X35759D01*
Y262553D01*
X145959D01*
X285958Y282553D02*
Y312553D01*
X205959Y282553D02*
X285958D01*
X275958Y302553D02*
Y318053D01*
X209559D02*
X275958D01*
X209559Y302953D02*
Y318053D01*
X109459Y302953D02*
X209559D01*
X109459D02*
Y322553D01*
X45959D02*
X109459D01*
X12700Y177800D02*
X31759D01*
Y268053D01*
X203559D01*
Y247053D02*
Y268053D01*
Y247053D02*
X285958D01*
Y272553D01*
X270459Y292553D02*
X275958D01*
X270459Y288053D02*
Y292553D01*
X133459Y288053D02*
X270459D01*
X133459Y287053D02*
Y288053D01*
X35959Y287053D02*
X133459D01*
X35959D02*
Y292553D01*
X265958Y294953D02*
Y302553D01*
X89459Y294953D02*
X265958D01*
X89459D02*
Y302553D01*
X25959D02*
X89459D01*
X12700Y254000D02*
X27759D01*
Y272553D01*
X215959D01*
X12700Y279400D02*
X190459D01*
Y282553D01*
X195959D01*
X12700Y304800D02*
Y315853D01*
X101459D01*
Y298953D02*
Y315853D01*
Y298953D02*
X215959D01*
Y312553D01*
D12*
X60960Y124460D02*
D03*
Y149860D02*
D03*
D13*
X242570Y58420D02*
D03*
Y33020D02*
D03*
X217170Y58420D02*
D03*
Y33020D02*
D03*
X191770Y58420D02*
D03*
Y33020D02*
D03*
X166370Y58420D02*
D03*
Y33020D02*
D03*
X140970Y58420D02*
D03*
X252730Y147320D02*
D03*
Y121920D02*
D03*
X227330Y147320D02*
D03*
Y121920D02*
D03*
X201930Y147320D02*
D03*
Y121920D02*
D03*
X176530Y147320D02*
D03*
Y121920D02*
D03*
X151130Y147320D02*
D03*
D14*
X140970Y33020D02*
D03*
X151130Y121920D02*
D03*
D15*
X317500Y76200D02*
D03*
Y101600D02*
D03*
Y127000D02*
D03*
Y152400D02*
D03*
Y177800D02*
D03*
Y203200D02*
D03*
Y228600D02*
D03*
Y254000D02*
D03*
Y279400D02*
D03*
Y304800D02*
D03*
Y330200D02*
D03*
Y355600D02*
D03*
X12700Y76200D02*
D03*
Y101600D02*
D03*
Y127000D02*
D03*
Y152400D02*
D03*
Y177800D02*
D03*
Y203200D02*
D03*
Y228600D02*
D03*
Y254000D02*
D03*
Y279400D02*
D03*
Y304800D02*
D03*
Y330200D02*
D03*
Y355600D02*
D03*
D16*
X311150Y406400D02*
D03*
X19050D02*
D03*
X310896Y25400D02*
D03*
X19050D02*
D03*
D17*
X138430Y375920D02*
D03*
Y401320D02*
D03*
X163830Y375920D02*
D03*
Y401320D02*
D03*
X189230Y375920D02*
D03*
Y401320D02*
D03*
X214630Y375920D02*
D03*
Y401320D02*
D03*
X240030Y375920D02*
D03*
D18*
Y401320D02*
D03*
D19*
X163830Y153670D02*
D03*
X265958Y192553D02*
D03*
X305958Y162553D02*
D03*
Y142553D02*
D03*
X165959Y262553D02*
D03*
X265958Y182553D02*
D03*
X175959D02*
D03*
X125959Y242553D02*
D03*
X175959Y192553D02*
D03*
X125959Y232553D02*
D03*
X165959Y342553D02*
D03*
X235958Y262553D02*
D03*
X265958D02*
D03*
X195959Y312553D02*
D03*
X105959Y342553D02*
D03*
X215959Y152553D02*
D03*
X135959Y202553D02*
D03*
X75959Y292553D02*
D03*
X185959Y132553D02*
D03*
X265958Y162553D02*
D03*
X45959Y252553D02*
D03*
X85959Y132553D02*
D03*
X155959Y82553D02*
D03*
X45959Y232553D02*
D03*
X55959Y32553D02*
D03*
X25959Y62553D02*
D03*
X175959Y352553D02*
D03*
X105959D02*
D03*
X295958Y252553D02*
D03*
X45959Y32553D02*
D03*
X65959Y292553D02*
D03*
X115959Y122553D02*
D03*
X55959Y12553D02*
D03*
X115959Y22553D02*
D03*
X185959Y312553D02*
D03*
X215959Y132553D02*
D03*
X115959Y142553D02*
D03*
Y202553D02*
D03*
X55959Y212553D02*
D03*
X35959Y122553D02*
D03*
X75959Y172553D02*
D03*
X55959D02*
D03*
X115959Y182553D02*
D03*
X215959Y72553D02*
D03*
X115959Y132553D02*
D03*
X135959Y192553D02*
D03*
X145959Y202553D02*
D03*
X185959Y82553D02*
D03*
X155959Y192553D02*
D03*
X105959Y42553D02*
D03*
Y202553D02*
D03*
X275958Y22553D02*
D03*
X195959Y212553D02*
D03*
X265958Y32553D02*
D03*
X195959Y202553D02*
D03*
Y182553D02*
D03*
X115959Y312553D02*
D03*
X215959Y252553D02*
D03*
X295958Y232553D02*
D03*
X275958D02*
D03*
X235958Y182553D02*
D03*
X225959Y212553D02*
D03*
Y202553D02*
D03*
X275958Y192553D02*
D03*
X295958Y162553D02*
D03*
X85959Y142553D02*
D03*
X175959Y242553D02*
D03*
X65959Y102553D02*
D03*
X155959Y242553D02*
D03*
X145959Y262553D02*
D03*
X205959Y282553D02*
D03*
X285958Y312553D02*
D03*
X45959Y322553D02*
D03*
X275958Y302553D02*
D03*
X285958Y272553D02*
D03*
X35959Y292553D02*
D03*
X275958D02*
D03*
X25959Y302553D02*
D03*
X265958D02*
D03*
X135959Y182553D02*
D03*
X175959Y342553D02*
D03*
X195959D02*
D03*
X235958Y252553D02*
D03*
Y272553D02*
D03*
X125959Y312553D02*
D03*
X105959Y222553D02*
D03*
Y242553D02*
D03*
X195959Y192553D02*
D03*
X95959Y62553D02*
D03*
X65959Y332553D02*
D03*
X75959Y242553D02*
D03*
X145959Y352553D02*
D03*
X215959D02*
D03*
X265958Y232553D02*
D03*
X75959Y212553D02*
D03*
X245958Y182553D02*
D03*
X75959Y122553D02*
D03*
X25959Y92553D02*
D03*
X165959Y132553D02*
D03*
X215959Y272553D02*
D03*
X195959Y282553D02*
D03*
X215959Y312553D02*
D03*
M02*
