M48
;Layer_Color=9474304
;FILE_FORMAT=4:4
METRIC,LZ
;TYPE=PLATED
T1F00S00C0.2000
T2F00S00C0.9000
T3F00S00C0.9144
T4F00S00C1.0000
T5F00S00C2.0000
%
T01
X00055959Y00012553
Y00032553
X00045959
X00025959Y00062553
Y00092553
X00035959Y00122553
X00075959
X00085959Y00132553
Y00142553
X00115959
Y00132553
Y00122553
Y00182553
Y00202553
X00105959
Y00222553
Y00242553
X00125959
Y00232553
X00135959Y00202553
Y00192553
Y00182553
X00145959Y00202553
X00155959Y00192553
X00175959
Y00182553
X00195959
Y00192553
Y00202553
Y00212553
X00175959Y00242553
X00155959
X00165959Y00262553
X00145959
X00125959Y00312553
X00115959
X00105959Y00342553
Y00352553
X00145959
X00165959Y00342553
X00175959
Y00352553
X00195959Y00342553
Y00312553
X00185959
X00215959
X00205959Y00282553
X00195959
X00215959Y00272553
Y00252553
Y00152553
Y00132553
X00185959
X00165959
X0016383Y0015367
X00155959Y00082553
X00185959
X00215959Y00072553
X00095959Y00062553
X00105959Y00042553
X00115959Y00022553
X00065959Y00102553
X00075959Y00172553
X00055959
Y00212553
X00075959
Y00242553
X00045959Y00252553
Y00232553
X00035959Y00292553
X00025959Y00302553
X00045959Y00322553
X00065959Y00332553
Y00292553
X00075959
X00215959Y00352553
X00265958Y00302553
X00275958
Y00292553
X00285958Y00312553
Y00272553
X00265958Y00262553
X00235958
Y00252553
Y00272553
X00225959Y00212553
Y00202553
X00235958Y00182553
X00245958
X00265958
Y00192553
X00275958
X00265958Y00162553
X00295958
X00305958
Y00142553
X00295958Y00232553
Y00252553
X00275958Y00232553
X00265958
Y00032553
X00275958Y00022553
T02
X0013843Y0037592
Y0040132
X0016383
Y0037592
X0018923
Y0040132
X0021463
Y0037592
X0024003
Y0040132
T03
X0014097Y0003302
X0016637
X0019177
X0021717
Y0005842
X0019177
X0016637
X0014097
X0015113Y0012192
X0017653
X0020193
Y0014732
X0017653
X0015113
X0022733
X0025273
Y0012192
X0022733
X0024257Y0005842
Y0003302
T04
X000127Y000762
Y001016
Y00127
Y001524
Y001778
Y002032
Y002286
Y00254
Y002794
Y003048
Y003302
Y003556
X0006096Y0014986
Y0012446
X003175Y00127
Y001016
Y000762
Y001524
Y001778
Y002032
Y002286
Y00254
Y002794
Y003048
Y003302
Y003556
T05
X0001905Y000254
X00310896
X0031115Y004064
X0001905
M30
