%FSLAX44Y44*%
%MOMM*%
G71*
G01*
G75*
G04 Layer_Color=8388736*
%ADD10R,0.8000X0.6000*%
%ADD11C,0.2000*%
G04:AMPARAMS|DCode=12|XSize=1.4mm|YSize=1.4mm|CornerRadius=0mm|HoleSize=0mm|Usage=FLASHONLY|Rotation=270.000|XOffset=0mm|YOffset=0mm|HoleType=Round|Shape=Octagon|*
%AMOCTAGOND12*
4,1,8,-0.3500,-0.7000,0.3500,-0.7000,0.7000,-0.3500,0.7000,0.3500,0.3500,0.7000,-0.3500,0.7000,-0.7000,0.3500,-0.7000,-0.3500,-0.3500,-0.7000,0.0*
%
%ADD12OCTAGOND12*%

G04:AMPARAMS|DCode=13|XSize=1.4mm|YSize=1.4mm|CornerRadius=0mm|HoleSize=0mm|Usage=FLASHONLY|Rotation=0.000|XOffset=0mm|YOffset=0mm|HoleType=Round|Shape=Octagon|*
%AMOCTAGOND13*
4,1,8,0.7000,-0.3500,0.7000,0.3500,0.3500,0.7000,-0.3500,0.7000,-0.7000,0.3500,-0.7000,-0.3500,-0.3500,-0.7000,0.3500,-0.7000,0.7000,-0.3500,0.0*
%
%ADD13OCTAGOND13*%

%ADD14C,1.4000*%
G04:AMPARAMS|DCode=15|XSize=1.6002mm|YSize=1.6002mm|CornerRadius=0mm|HoleSize=0mm|Usage=FLASHONLY|Rotation=270.000|XOffset=0mm|YOffset=0mm|HoleType=Round|Shape=Octagon|*
%AMOCTAGOND15*
4,1,8,-0.4001,-0.8001,0.4001,-0.8001,0.8001,-0.4001,0.8001,0.4001,0.4001,0.8001,-0.4001,0.8001,-0.8001,0.4001,-0.8001,-0.4001,-0.4001,-0.8001,0.0*
%
%ADD15OCTAGOND15*%

%ADD16C,1.0000*%
G04:AMPARAMS|DCode=17|XSize=1.6002mm|YSize=1.6002mm|CornerRadius=0mm|HoleSize=0mm|Usage=FLASHONLY|Rotation=180.000|XOffset=0mm|YOffset=0mm|HoleType=Round|Shape=Octagon|*
%AMOCTAGOND17*
4,1,8,-0.8001,0.4001,-0.8001,-0.4001,-0.4001,-0.8001,0.4001,-0.8001,0.8001,-0.4001,0.8001,0.4001,0.4001,0.8001,-0.4001,0.8001,-0.8001,0.4001,0.0*
%
%ADD17OCTAGOND17*%

%ADD18C,1.6002*%
%ADD19C,0.5000*%
%ADD20C,1.0160*%
%ADD21C,2.0160*%
%ADD22C,1.9304*%
G04:AMPARAMS|DCode=23|XSize=2.4384mm|YSize=2.4384mm|CornerRadius=0mm|HoleSize=0mm|Usage=FLASHONLY|Rotation=0.000|XOffset=0mm|YOffset=0mm|HoleType=Round|Shape=Relief|Width=0.254mm|Gap=0.254mm|Entries=4|*
%AMTHD23*
7,0,0,2.4384,1.9304,0.2540,45*
%
%ADD23THD23*%
G04:AMPARAMS|DCode=24|XSize=2.524mm|YSize=2.524mm|CornerRadius=0mm|HoleSize=0mm|Usage=FLASHONLY|Rotation=0.000|XOffset=0mm|YOffset=0mm|HoleType=Round|Shape=Relief|Width=0.254mm|Gap=0.254mm|Entries=4|*
%AMTHD24*
7,0,0,2.5240,2.0160,0.2540,45*
%
%ADD24THD24*%
%ADD25C,3.0160*%
%ADD26C,1.9160*%
G04:AMPARAMS|DCode=27|XSize=2.424mm|YSize=2.424mm|CornerRadius=0mm|HoleSize=0mm|Usage=FLASHONLY|Rotation=0.000|XOffset=0mm|YOffset=0mm|HoleType=Round|Shape=Relief|Width=0.254mm|Gap=0.254mm|Entries=4|*
%AMTHD27*
7,0,0,2.4240,1.9160,0.2540,45*
%
%ADD27THD27*%
G04:AMPARAMS|DCode=28|XSize=1.724mm|YSize=1.724mm|CornerRadius=0mm|HoleSize=0mm|Usage=FLASHONLY|Rotation=0.000|XOffset=0mm|YOffset=0mm|HoleType=Round|Shape=Relief|Width=0.254mm|Gap=0.254mm|Entries=4|*
%AMTHD28*
7,0,0,1.7240,1.2160,0.2540,45*
%
%ADD28THD28*%
%ADD29C,1.2160*%
%ADD30R,0.6000X0.8000*%
%ADD31R,1.1998X0.2498*%
%ADD32R,0.2498X1.1998*%
%ADD33R,3.8100X2.0066*%
%ADD34R,1.4986X2.0066*%
%ADD35C,0.1500*%
%ADD36C,0.1270*%
%ADD37C,0.2500*%
%ADD38C,0.0508*%
%ADD39R,1.0000X0.8000*%
G04:AMPARAMS|DCode=40|XSize=1.6mm|YSize=1.6mm|CornerRadius=0mm|HoleSize=0mm|Usage=FLASHONLY|Rotation=270.000|XOffset=0mm|YOffset=0mm|HoleType=Round|Shape=Octagon|*
%AMOCTAGOND40*
4,1,8,-0.4000,-0.8000,0.4000,-0.8000,0.8000,-0.4000,0.8000,0.4000,0.4000,0.8000,-0.4000,0.8000,-0.8000,0.4000,-0.8000,-0.4000,-0.4000,-0.8000,0.0*
%
%ADD40OCTAGOND40*%

G04:AMPARAMS|DCode=41|XSize=1.6mm|YSize=1.6mm|CornerRadius=0mm|HoleSize=0mm|Usage=FLASHONLY|Rotation=0.000|XOffset=0mm|YOffset=0mm|HoleType=Round|Shape=Octagon|*
%AMOCTAGOND41*
4,1,8,0.8000,-0.4000,0.8000,0.4000,0.4000,0.8000,-0.4000,0.8000,-0.8000,0.4000,-0.8000,-0.4000,-0.4000,-0.8000,0.4000,-0.8000,0.8000,-0.4000,0.0*
%
%ADD41OCTAGOND41*%

%ADD42C,1.6000*%
G04:AMPARAMS|DCode=43|XSize=1.8002mm|YSize=1.8002mm|CornerRadius=0mm|HoleSize=0mm|Usage=FLASHONLY|Rotation=270.000|XOffset=0mm|YOffset=0mm|HoleType=Round|Shape=Octagon|*
%AMOCTAGOND43*
4,1,8,-0.4501,-0.9001,0.4501,-0.9001,0.9001,-0.4501,0.9001,0.4501,0.4501,0.9001,-0.4501,0.9001,-0.9001,0.4501,-0.9001,-0.4501,-0.4501,-0.9001,0.0*
%
%ADD43OCTAGOND43*%

%ADD44C,1.2000*%
G04:AMPARAMS|DCode=45|XSize=1.8002mm|YSize=1.8002mm|CornerRadius=0mm|HoleSize=0mm|Usage=FLASHONLY|Rotation=180.000|XOffset=0mm|YOffset=0mm|HoleType=Round|Shape=Octagon|*
%AMOCTAGOND45*
4,1,8,-0.9001,0.4501,-0.9001,-0.4501,-0.4501,-0.9001,0.4501,-0.9001,0.9001,-0.4501,0.9001,0.4501,0.4501,0.9001,-0.4501,0.9001,-0.9001,0.4501,0.0*
%
%ADD45OCTAGOND45*%

%ADD46C,1.8002*%
%ADD47C,0.7000*%
D39*
X41910Y59944D02*
D03*
Y46482D02*
D03*
X54610Y59944D02*
D03*
Y46482D02*
D03*
X80010Y59944D02*
D03*
Y46482D02*
D03*
X67310Y59944D02*
D03*
Y46482D02*
D03*
X41910Y84074D02*
D03*
Y70612D02*
D03*
X54610Y84074D02*
D03*
Y70612D02*
D03*
X80010Y84074D02*
D03*
Y70612D02*
D03*
X67310Y84074D02*
D03*
Y70612D02*
D03*
D40*
X60960Y124460D02*
D03*
Y149860D02*
D03*
D41*
X242570Y58420D02*
D03*
Y33020D02*
D03*
X217170Y58420D02*
D03*
Y33020D02*
D03*
X191770Y58420D02*
D03*
Y33020D02*
D03*
X166370Y58420D02*
D03*
Y33020D02*
D03*
X140970Y58420D02*
D03*
X252730Y147320D02*
D03*
Y121920D02*
D03*
X227330Y147320D02*
D03*
Y121920D02*
D03*
X201930Y147320D02*
D03*
Y121920D02*
D03*
X176530Y147320D02*
D03*
Y121920D02*
D03*
X151130Y147320D02*
D03*
D42*
X140970Y33020D02*
D03*
X151130Y121920D02*
D03*
D43*
X317500Y76200D02*
D03*
Y101600D02*
D03*
Y127000D02*
D03*
Y152400D02*
D03*
Y177800D02*
D03*
Y203200D02*
D03*
Y228600D02*
D03*
Y254000D02*
D03*
Y279400D02*
D03*
Y304800D02*
D03*
Y330200D02*
D03*
Y355600D02*
D03*
X12700Y76200D02*
D03*
Y101600D02*
D03*
Y127000D02*
D03*
Y152400D02*
D03*
Y177800D02*
D03*
Y203200D02*
D03*
Y228600D02*
D03*
Y254000D02*
D03*
Y279400D02*
D03*
Y304800D02*
D03*
Y330200D02*
D03*
Y355600D02*
D03*
D44*
X311150Y406400D02*
D03*
X19050D02*
D03*
X310896Y25400D02*
D03*
X19050D02*
D03*
D45*
X138430Y375920D02*
D03*
Y401320D02*
D03*
X163830Y375920D02*
D03*
Y401320D02*
D03*
X189230Y375920D02*
D03*
Y401320D02*
D03*
X214630Y375920D02*
D03*
Y401320D02*
D03*
X240030Y375920D02*
D03*
D46*
Y401320D02*
D03*
D47*
X163830Y153670D02*
D03*
X265958Y192553D02*
D03*
X305958Y162553D02*
D03*
Y142553D02*
D03*
X165959Y262553D02*
D03*
X265958Y182553D02*
D03*
X175959D02*
D03*
X125959Y242553D02*
D03*
X175959Y192553D02*
D03*
X125959Y232553D02*
D03*
X165959Y342553D02*
D03*
X235958Y262553D02*
D03*
X265958D02*
D03*
X195959Y312553D02*
D03*
X105959Y342553D02*
D03*
X215959Y152553D02*
D03*
X135959Y202553D02*
D03*
X75959Y292553D02*
D03*
X185959Y132553D02*
D03*
X265958Y162553D02*
D03*
X45959Y252553D02*
D03*
X85959Y132553D02*
D03*
X155959Y82553D02*
D03*
X45959Y232553D02*
D03*
X55959Y32553D02*
D03*
X25959Y62553D02*
D03*
X175959Y352553D02*
D03*
X105959D02*
D03*
X295958Y252553D02*
D03*
X45959Y32553D02*
D03*
X65959Y292553D02*
D03*
X115959Y122553D02*
D03*
X55959Y12553D02*
D03*
X115959Y22553D02*
D03*
X185959Y312553D02*
D03*
X215959Y132553D02*
D03*
X115959Y142553D02*
D03*
Y202553D02*
D03*
X55959Y212553D02*
D03*
X35959Y122553D02*
D03*
X75959Y172553D02*
D03*
X55959D02*
D03*
X115959Y182553D02*
D03*
X215959Y72553D02*
D03*
X115959Y132553D02*
D03*
X135959Y192553D02*
D03*
X145959Y202553D02*
D03*
X185959Y82553D02*
D03*
X155959Y192553D02*
D03*
X105959Y42553D02*
D03*
Y202553D02*
D03*
X275958Y22553D02*
D03*
X195959Y212553D02*
D03*
X265958Y32553D02*
D03*
X195959Y202553D02*
D03*
Y182553D02*
D03*
X115959Y312553D02*
D03*
X215959Y252553D02*
D03*
X295958Y232553D02*
D03*
X275958D02*
D03*
X235958Y182553D02*
D03*
X225959Y212553D02*
D03*
Y202553D02*
D03*
X275958Y192553D02*
D03*
X295958Y162553D02*
D03*
X85959Y142553D02*
D03*
X175959Y242553D02*
D03*
X65959Y102553D02*
D03*
X155959Y242553D02*
D03*
X145959Y262553D02*
D03*
X205959Y282553D02*
D03*
X285958Y312553D02*
D03*
X45959Y322553D02*
D03*
X275958Y302553D02*
D03*
X285958Y272553D02*
D03*
X35959Y292553D02*
D03*
X275958D02*
D03*
X25959Y302553D02*
D03*
X265958D02*
D03*
X135959Y182553D02*
D03*
X175959Y342553D02*
D03*
X195959D02*
D03*
X235958Y252553D02*
D03*
Y272553D02*
D03*
X125959Y312553D02*
D03*
X105959Y222553D02*
D03*
Y242553D02*
D03*
X195959Y192553D02*
D03*
X95959Y62553D02*
D03*
X65959Y332553D02*
D03*
X75959Y242553D02*
D03*
X145959Y352553D02*
D03*
X215959D02*
D03*
X265958Y232553D02*
D03*
X75959Y212553D02*
D03*
X245958Y182553D02*
D03*
X75959Y122553D02*
D03*
X25959Y92553D02*
D03*
X165959Y132553D02*
D03*
X215959Y272553D02*
D03*
X195959Y282553D02*
D03*
X215959Y312553D02*
D03*
M02*
